<?xml version="1.0" encoding="utf-8"?>
<!-- Generator: Adobe Illustrator 22.1.0, SVG Export Plug-In . SVG Version: 6.00 Build 0)  -->
<svg version="1.1" id="Layer_1" xmlns="http://www.w3.org/2000/svg" xmlns:xlink="http://www.w3.org/1999/xlink" x="0px" y="0px"
	 viewBox="0 0 207.3 80" style="enable-background:new 0 0 207.3 80;" xml:space="preserve">
<style type="text/css">
	.st0{fill:#E8EDDF;}
	.st1{fill:#CFDBD5;}
	.st2{fill:#B90504;}
</style>
<g>
	<g>
		<path class="st0" d="M23.3,26.9l0.5-0.4l0-0.9c0.7-1.7,1.4-3.3,2.1-4.9c0.7-1.6,1.5-3.1,2.3-4.8c0.2-0.5,0.5-1.1,0.8-1.6
			c0.3-0.5,0.5-1.1,0.8-1.6c0-0.1,0-0.2,0-0.4s0-0.3,0.1-0.4c0.4-0.6,0.7-1.1,0.9-1.5c0.2-0.4,0.5-0.9,0.7-1.4
			c0.2-0.6,0.5-1.1,0.8-1.7c0.3-0.6,0.7-1.1,1.1-1.6l0.3-0.4l0.5,0c0.1-0.1,0.2-0.1,0.4-0.1c0.1,0,0.3-0.1,0.5-0.1l0.7,0.1
			c0.9-0.4,1.7-1,2.4-1.8s1.4-1.7,2.1-2.8L40.9,0l0.7,0.4c0.1,0.1,0.4,0.2,0.7,0.2c0.3,0.1,0.6,0.2,1,0.3c0.6,0.1,1.2,0.3,1.7,0.5
			c0.6,0.2,1,0.4,1.3,0.7l0.2,0.4c0.1,0.3,0.1,0.6,0.1,0.8c0,0.2,0.1,0.5,0.1,0.7c0.1,0.6,0.2,1.2,0.3,1.7C47,6.4,47.1,7,47.1,7.7
			c0.1,0.6,0.3,1.1,0.4,1.7c0.1,0.6,0.2,1.1,0.4,1.7c0.1,0.8,0.3,1.6,0.5,2.3c0.2,0.7,0.4,1.4,0.7,2.1c0.3,0,0.4,0,0.5,0
			c0.3-0.1,0.7-0.2,1.2-0.2l0.5,0l0.2,0.5c0.1,0.1,0.1,0.2,0.2,0.2c0.1,0.1,0.2,0.2,0.3,0.2c0.4,0,0.8,0.1,1,0.3
			c0.2,0.2,0.4,0.3,0.5,0.4c0.1,0.1,0.1,0.1,0.2,0.2c0.1,0.1,0.2,0.1,0.2,0.1l0.7,0.3l-0.4,0.8c-0.3,0.6-0.8,1.2-1.4,1.7
			c-0.6,0.6-1.3,1-2.1,1.4c0.1,0.2,0.1,0.4,0.1,0.5c0,0.2,0,0.4,0.1,0.6c0.1,0.6,0.2,1.1,0.3,1.7c0.1,0.6,0.1,1.2,0,1.9
			c-0.3,0.7-0.6,1.4-1,1.9c-0.4,0.6-0.8,1.1-1.3,1.5c-0.5,0.5-1.1,0.8-1.7,1.1c-0.6,0.3-1.3,0.5-2,0.5c-0.4-0.1-0.7-0.2-0.9-0.3
			c-0.2-0.1-0.3-0.2-0.5-0.3c-0.2-0.2-0.4-0.3-0.5-0.3L42.6,30l0.2-0.6c0.1-0.2,0.1-0.4,0-0.6c-0.1-0.2-0.3-0.4-0.6-0.7
			c-0.1-0.1-0.2-0.2-0.3-0.3c-0.1-0.1-0.2-0.2-0.3-0.3l-0.8-1l1.4-0.4c0.8-0.2,1.4-0.5,1.7-0.9c0.3-0.3,0.4-1,0.3-1.9
			c-0.7-0.1-1.3-0.2-1.7-0.1c-0.4,0.1-0.9,0.2-1.3,0.3c-0.6,0.2-1.3,0.3-1.9,0.4c-0.6,0.1-1.3,0.2-2,0.2c-0.5,0-1,0-1.5-0.1l-0.5,0
			l-0.1-0.5c0-0.1,0-0.1-0.1-0.2c-0.1-0.1-0.1-0.1-0.2-0.2c-0.1-0.2-0.3-0.4-0.5-0.7c-0.2-0.3-0.2-0.6-0.1-1c-0.2-0.3-0.3-0.6-0.3-1
			c-0.1,0.2-0.2,0.4-0.3,0.6c-0.1,0.2-0.1,0.4-0.2,0.6l-0.2,0.5l-0.5,0.1c-0.1,0.1-0.1,0.1-0.1,0.2c0,0.1,0,0.2,0,0.2l0.2,0.5
			l-0.4,0.4c-0.1,0.1-0.1,0.2-0.2,0.2c-0.1,0.1-0.2,0.1-0.2,0.2c-0.1,0.3-0.1,0.6-0.2,0.9c-0.1,0.3-0.2,0.6-0.3,0.8
			c-0.1,0.4-0.3,0.9-0.4,1.3c-0.1,0.4-0.2,0.8-0.2,1.2l-0.2,0.5c-0.1,0.2-0.3,0.4-0.5,0.5c-0.2,0.1-0.4,0.2-0.6,0.3
			c-0.3,0.1-0.5,0.2-0.6,0.3l-0.1,0.5l-0.6,0.1c-0.4,0.1-0.6,0.1-0.8,0.2c-0.2,0-0.3,0-0.5,0l-0.5,0c-0.3-0.3-0.6-0.6-0.8-0.8
			c-0.2-0.2-0.5-0.3-0.7-0.5l-0.2-0.3c-0.1-0.2-0.2-0.4-0.2-0.6c0-0.2-0.1-0.4-0.1-0.6c-0.1-0.4-0.1-0.6-0.2-0.7L23.3,26.9z
			 M36.6,16.1c-0.4,0.6-0.8,1.1-1.1,1.7c0.2,0,0.4,0,0.6,0c0.2,0,0.4,0,0.6,0c1-0.1,1.9-0.1,2.7-0.2c0.8-0.1,1.7-0.2,2.7-0.4
			c-0.2-1-0.5-2.1-0.7-3.1c-0.3-1.1-0.5-2.1-0.9-3.2l-0.2,0.4c-0.7,0.7-1.4,1.6-2,2.4C37.6,14.5,37.1,15.3,36.6,16.1L36.6,16.1z"/>
		<path class="st0" d="M61,26.5c-0.3,1.1-0.6,1.9-0.8,2.5c-0.2,0.6-0.6,1.2-1.1,1.8c-0.4-0.1-0.6,0-0.7,0.1
			c-0.1,0.1-0.3,0.3-0.5,0.4c-0.2,0.1-0.4,0.1-0.5,0c-0.1-0.1-0.2-0.1-0.3-0.2c-0.1-0.1-0.2-0.1-0.3-0.2c-0.1-0.1-0.3-0.1-0.6-0.1
			c-0.1-0.2-0.1-0.4-0.2-0.6C56,30,55.8,29.9,55.5,30c0.1-0.2,0.1-0.4,0-0.6c0-0.2-0.1-0.3-0.1-0.4c0-0.1-0.1-0.2-0.1-0.4
			c0-0.1,0-0.3,0-0.5c-0.1,0-0.2-0.1-0.3-0.3c-0.1-0.2-0.2-0.4-0.3-0.6c0.1-0.5,0.2-1,0.2-1.4c0.1-0.4,0.2-0.9,0.3-1.2
			c0.1-0.4,0.2-0.8,0.3-1.2c0.1-0.4,0-0.8-0.1-1.2c0.1,0.1,0.2,0.1,0.2-0.1c0.1-0.1,0.1-0.3,0.1-0.5c0-0.2,0-0.4,0-0.6s0-0.4,0-0.5
			c0.3-0.7,0.5-1.5,0.7-2.2c0.2-0.8,0.3-1.5,0.5-2.3c0.2-0.7,0.3-1.5,0.5-2.2c0.2-0.7,0.4-1.4,0.7-2c0.3-0.1,0.6,0,1,0.1
			c0.4,0.1,0.6,0.3,0.7,0.5c0.7-0.6,1.4-1.2,1.9-2c0.6-0.8,1.1-1.6,1.7-2.3c0.6-0.7,1.2-1.4,1.9-2s1.6-0.9,2.7-1
			c0.6,0.4,1.2,0.8,1.9,1.3c0.7,0.4,1.2,1,1.7,1.7c0.2,0.1,0.4,0.2,0.6,0.4c0.2,0.1,0.3,0.3,0.6,0.4v0.5c0.3,0.3,0.6,0.7,0.8,1.1
			c0.2,0.4,0.4,0.8,0.6,1.3c0.2,0.5,0.3,0.9,0.5,1.4s0.4,0.9,0.6,1.3c-0.1,0.1-0.1,0.3-0.1,0.4c0,0.1,0,0.2,0.1,0.3
			c0,0.1,0.1,0.2,0.1,0.3c0,0.1,0,0.3,0,0.5c-0.1,1.2-0.5,2.2-1.2,3c-0.7,0.7-1.6,1.4-2.6,1.9c-1,0.5-2.1,0.9-3.2,1.2
			c-1.1,0.3-2.2,0.7-3.1,1.1c0,0.1,0,0.2,0.1,0.2c0.1,0,0.1,0.1,0.1,0.2c0.7,0.4,1.2,0.7,1.6,1c0.4,0.2,0.8,0.5,1.1,0.6
			c0.3,0.2,0.7,0.3,1.1,0.4c0.4,0.1,1,0.3,1.7,0.4c0.7,0.2,1.3,0.3,1.7,0.4c0.4,0.1,0.8,0.2,1.1,0.2c0.3,0.1,0.7,0.1,1,0.2
			c0.3,0,0.8,0.1,1.5,0.1c0.2,0.2,0.5,0.5,0.6,0.9c0.2,0.3,0.3,0.7,0.4,1c0.1,0.3,0.1,0.7,0,1c0,0.3-0.1,0.6-0.3,0.8
			c0,0.1,0.1,0.1,0.2,0.1c0.1,0,0.2,0,0.3,0c-0.2,0.1-0.3,0.2-0.4,0.4c-0.1,0.2-0.2,0.3-0.3,0.5c-0.1,0.2-0.2,0.3-0.4,0.4
			c-0.1,0.1-0.3,0.2-0.6,0.2c-0.9,0.3-1.9,0.4-3.2,0.1c-1.3-0.3-3-0.8-4.9-1.6c-1-0.4-1.8-0.7-2.4-1c-0.6-0.3-1.2-0.6-1.6-0.9
			c-0.5-0.3-0.9-0.6-1.2-0.9C62,27.4,61.5,27,61,26.5z M67,12.3c-0.3,0.4-0.6,0.8-1,1.2c-0.4,0.4-0.7,0.7-1.1,1.1
			c-0.3,0.4-0.7,0.8-0.9,1.2c-0.3,0.5-0.5,1-0.6,1.6c1-0.1,2-0.4,3-0.8c1.1-0.4,2.1-0.8,3-1.2c-0.1-0.9-0.4-1.6-0.9-2.1
			C68,12.8,67.5,12.4,67,12.3z"/>
		<path class="st0" d="M106.1,30.1c-0.3,0.1-0.5,0.3-0.8,0.4c-0.2,0.1-0.5,0.2-0.8,0.2c-1.1-0.8-1.6-2.2-1.7-4.2
			c0-2,0.4-4.5,1.3-7.6c0.1-0.1,0.2-0.2,0.2-0.5l-0.4-0.4c-0.1,0-0.2,0-0.3,0c-0.1,0-0.2,0.1-0.2,0.3c-0.7,0.5-1.5,1.1-2.4,1.6
			c-0.9,0.6-1.8,1.1-2.7,1.6c-0.9,0.5-1.9,0.9-2.8,1.2c-1,0.3-1.9,0.5-2.8,0.5c-2.3,0-4.1-1.2-5.2-3.5L87.2,19l-0.3,0.5
			c-0.1,0.1-0.2,0.3-0.4,0.7c-0.2,0.3-0.3,0.7-0.5,1.2c-0.2,0.4-0.3,0.9-0.4,1.4s-0.2,0.9-0.1,1.2c-0.2,0.2-0.5,0.5-0.8,0.9
			c-0.3,0.3-0.5,0.7-0.6,1.1c-0.1,0.2,0,0.4,0.1,0.6c-0.1,0.2-0.2,0.4-0.4,0.6c-0.1,0.1-0.2,0.3-0.4,0.4c-0.1,0.1-0.2,0.3-0.3,0.4
			c-0.1,0.1-0.1,0.3-0.1,0.4c0,0.1,0,0.3-0.1,0.4c0,0.2,0,0.4-0.1,0.5c-0.5,1-0.8,1.6-1.1,1.9c-0.3,0.3-0.7,0.4-1.1,0.4
			c-0.2,0-0.6,0-1.1-0.1c-0.4-0.4-0.7-0.9-1-1.6c-0.3-0.7-0.5-1.4-0.7-2.2c-0.2-0.8-0.2-1.6-0.2-2.3c0-0.8,0.1-1.5,0.4-2.1
			c0,0,0.1-0.3,0.3-0.8c0.2-0.5,0.5-1.2,0.9-2c0.3-0.8,0.7-1.8,1.2-2.8c0.4-1,0.9-2,1.3-3c0.4-1,0.9-1.8,1.3-2.6
			c0.4-0.8,0.7-1.4,1-1.8c0.2-0.3,0.4-0.6,0.6-0.9c0.2-0.3,0.4-0.6,0.5-0.9c0.5-0.9,1-1.6,1.4-2.1c0.5-0.6,1.1-1,2-1.4
			c0.6,0.2,1.1,0.5,1.3,0.9L90,6.3c0.1,0.3,0.3,0.4,0.5,0.4c0.3,0.1,0.6,0.2,0.8,0.2c0.2,0.1,0.4,0.1,0.7,0.2
			c0.2,0.2,0.4,0.5,0.5,0.8c0.2,0.3,0.4,0.7,0.6,1c0.2,0.3,0.4,0.6,0.5,1c0.1,0.3,0.2,0.6,0.2,1c0,0.3,0,0.7-0.2,1l0,0.4
			c0.1,0.2,0.2,0.6,0.1,1c0,0.2,0,0.4,0,0.6c0,0.2,0,0.4,0.1,0.7c0.5,0.4,0.9,0.6,1.3,0.6c0.4,0,0.9-0.1,1.2-0.3
			c0.4-0.2,0.7-0.4,1.1-0.6c0.2-0.2,0.4-0.3,0.7-0.4c0.2-0.1,0.4-0.2,0.7-0.2c0.5-0.5,0.9-0.9,1.4-1.2c0.4-0.4,0.8-0.7,1.3-1.1
			c0.8-0.7,1.6-1.4,2.4-2.2c0.8-0.8,1.4-1.7,1.9-2.9c0.3-0.2,0.6-0.2,0.9-0.2c0.3,0,0.6,0.1,1,0.2c0.3,0.1,0.7,0.3,1,0.4
			c0.1,0.1,0.2,0.1,0.2,0.1c0.1,0,0.1,0.1,0.2,0.1c0,0.3,0.1,0.5,0.3,0.7c0.1,0.1,0.2,0.1,0.2,0.2c0,0,0.1,0.1,0.1,0.1
			c0.4,0.2,0.7,0.4,0.8,0.7c0.2,0.6,0.5,1.1,1,1.5c-0.1,0.3,0,0.5,0,0.8c0.1,0.2,0.2,0.5,0.3,0.7c0,0.1,0.1,0.2,0.1,0.2
			c0,0.1,0.1,0.2,0.1,0.3l-0.8-0.1l0.1,0.8c0.1,0.4,0,0.8-0.1,1.3c-0.1,0.5-0.3,0.8-0.4,1.1c0,0.7,0,1.3,0.1,1.7
			c0,0.4,0,0.8-0.1,1.1c-0.1,0.3-0.1,0.7-0.2,1c-0.1,0.3-0.2,0.6-0.4,1c0.1,1.8-0.1,3.4-0.6,4.8c-0.5,1.5-1,2.8-1.6,4.1
			c-0.1,0.1-0.1,0.3-0.2,0.4c-0.1,0.1-0.1,0.3-0.2,0.4c-0.2,0.1-0.5,0.2-0.7,0.3C106.6,29.9,106.4,30,106.1,30.1z"/>
		<path class="st0" d="M134,27.4c-0.2,0.5-0.4,0.9-0.7,1.4c-0.3,0.5-0.7,0.9-1.1,1.3c-0.4,0.4-0.9,0.7-1.4,0.9
			c-0.5,0.2-1.1,0.4-1.7,0.4c-0.4-0.1-0.6-0.2-0.7-0.3c-0.1-0.1-0.3-0.2-0.4-0.3c-0.1-0.1-0.2-0.1-0.2-0.1c-0.1,0-0.1-0.1-0.2-0.1
			l-0.5-0.2l0.2-0.5c0.1-0.2,0-0.4,0-0.5c-0.1-0.1-0.2-0.3-0.5-0.5c-0.1-0.1-0.2-0.2-0.2-0.2c-0.1-0.1-0.2-0.2-0.2-0.2l-0.7-0.8
			l1.1-0.3c0.7-0.2,1.2-0.4,1.4-0.7c0.2-0.3,0.3-0.8,0.3-1.5c-0.6-0.1-1-0.1-1.4,0c-0.4,0.1-0.8,0.2-1.1,0.3c-0.5,0.1-1,0.3-1.5,0.4
			c-0.5,0.1-1.1,0.1-1.7,0.1c-0.2,0-0.4,0-0.6,0c-0.2,0-0.4,0-0.6-0.1l-0.4-0.1c-0.1-0.3-0.1-0.5-0.2-0.5c-0.1,0-0.1-0.1-0.2-0.1
			c-0.1-0.1-0.3-0.3-0.4-0.6c-0.2-0.2-0.2-0.5-0.1-0.9c-0.1-0.2-0.2-0.5-0.2-0.7c-0.2,0.3-0.3,0.7-0.4,1l-0.2,0.4l-0.4,0.1
			c-0.1,0-0.1,0.1-0.1,0.2c0,0.1,0,0.2,0,0.2l-0.2,0.7c-0.1,0.1-0.1,0.1-0.2,0.1c-0.1,0-0.1,0.1-0.2,0.1c-0.1,0.2-0.1,0.5-0.2,0.7
			c-0.1,0.2-0.2,0.5-0.2,0.7c-0.1,0.4-0.3,0.7-0.4,1.1c-0.1,0.3-0.1,0.7-0.1,1l-0.2,0.5c-0.1,0.2-0.3,0.3-0.5,0.4
			c-0.2,0.1-0.3,0.2-0.5,0.3c-0.1,0.1-0.1,0.1-0.2,0.1c-0.1,0-0.2,0.1-0.2,0.1l-0.1,0.5l-0.5,0.1c-0.3,0.1-0.5,0.1-0.6,0.1
			c-0.1,0-0.3,0-0.4,0l-0.4,0c-0.3-0.2-0.5-0.5-0.7-0.6c-0.2-0.2-0.4-0.3-0.6-0.4c-0.2-0.3-0.4-0.6-0.4-0.7c0-0.2-0.1-0.3-0.1-0.5
			c-0.1-0.2-0.1-0.3-0.1-0.4c0-0.1,0-0.2-0.1-0.2l-0.5-0.5l0.5-0.4l0-0.7c0.6-1.4,1.1-2.8,1.8-4.1c0.6-1.3,1.3-2.6,1.9-4
			c0.2-0.4,0.4-0.9,0.6-1.3c0.2-0.4,0.4-0.9,0.6-1.3c0-0.1,0-0.2,0-0.3c0-0.1,0-0.2,0.1-0.4c0.3-0.5,0.6-0.9,0.7-1.3
			c0.2-0.4,0.4-0.8,0.6-1.1c0.2-0.5,0.5-0.9,0.7-1.4c0.2-0.4,0.5-0.9,0.9-1.4l0.7-0.3c0.1,0,0.2-0.1,0.3-0.1c0.1,0,0.2-0.1,0.4-0.1
			l0.6,0.1c0.8-0.4,1.5-0.9,2-1.5c0.6-0.7,1.2-1.4,1.8-2.3l0.4-0.6l0.5,0.3c0.1,0.1,0.3,0.2,0.6,0.2c0.2,0.1,0.5,0.1,0.8,0.2
			c0.5,0.1,1,0.2,1.4,0.4c0.4,0.1,0.8,0.3,1.1,0.6c0.2,0.4,0.3,0.8,0.3,1c0,0.2,0.1,0.4,0.1,0.7c0.1,0.5,0.2,0.9,0.2,1.4
			c0.1,0.5,0.1,1,0.1,1.6c0.1,0.5,0.3,0.9,0.4,1.4c0.1,0.5,0.2,0.9,0.3,1.4c0.1,0.7,0.3,1.3,0.4,1.9c0.1,0.6,0.3,1.2,0.5,1.8
			c0.2,0,0.4,0,0.4,0c0.1-0.1,0.3-0.1,0.4-0.1c0.2,0,0.3-0.1,0.5-0.1l0.5,0l0.2,0.4c0,0.1,0.2,0.3,0.4,0.4c0.4,0,0.6,0.1,0.8,0.2
			c0.2,0.1,0.3,0.3,0.5,0.4c0.1,0.1,0.2,0.2,0.3,0.2L137,20l-0.3,0.6c-0.3,0.5-0.7,1-1.2,1.4c-0.5,0.5-1.1,0.8-1.7,1.1
			c0,0.2,0,0.3,0.1,0.5c0,0.2,0,0.3,0.1,0.5c0.1,0.5,0.2,1,0.2,1.5c0.1,0.5,0.1,1,0,1.5L134,27.4z M122,20.2
			c0.8-0.1,1.6-0.1,2.3-0.2c0.7-0.1,1.4-0.2,2.3-0.4c-0.2-0.8-0.4-1.7-0.6-2.6c-0.2-0.9-0.5-1.8-0.7-2.7l-0.2,0.4
			c-0.6,0.6-1.1,1.2-1.6,2c-0.5,0.7-0.9,1.4-1.3,2c-0.2,0.2-0.3,0.5-0.5,0.7c-0.2,0.2-0.3,0.5-0.5,0.7c0.2,0,0.3,0,0.5,0
			C121.7,20.2,121.9,20.2,122,20.2z"/>
		<path class="st0" d="M145.3,23.3c-0.2,0.1-0.4,0.2-0.5,0.4c-0.1,0.2-0.2,0.5-0.3,0.7c-0.1,0.2-0.2,0.5-0.3,0.7
			c-0.1,0.2-0.2,0.3-0.4,0.3c0,0.2-0.1,0.4-0.2,0.6c-0.1,0.2-0.2,0.3-0.4,0.5c-0.1,0.2-0.2,0.4-0.2,0.6c-0.1,0.2,0,0.5,0.1,0.7
			c-0.2,0.2-0.4,0.4-0.4,0.7c-0.1,0.3-0.1,0.6-0.2,0.9c-0.1,0.3-0.2,0.5-0.4,0.7c-0.2,0.2-0.5,0.3-0.9,0.2c-0.1,0.1-0.1,0.2,0,0.2
			c0.1,0,0.1,0.1,0.1,0.3c-0.3-0.1-0.5,0-0.7,0.1c-0.2,0.1-0.3,0.2-0.6,0.2c-0.5-0.2-1-0.5-1.3-0.9c-0.3-0.4-0.7-0.9-0.9-1.4
			c-0.3-0.5-0.5-1-0.7-1.6c-0.2-0.5-0.4-1-0.6-1.4c0.1-0.3,0.1-0.6,0-0.9c-0.1-0.3-0.2-0.5-0.3-0.7c1.4-2.9,2.8-6,4.4-9.2
			c1.6-3.3,3.1-6.5,4.6-9.7c0.6,0.2,1.3,0.5,1.9,0.9c0.6,0.3,1.2,0.7,1.7,1.1c0.5,0.4,0.9,0.9,1.3,1.4c0.4,0.5,0.6,1.1,0.7,1.8
			c-0.1,0.2-0.1,0.2-0.2,0.2c-0.1,0-0.1,0-0.2,0.1c0.1,0.1,0.2,0.2,0.2,0.3c0,0.1,0,0.1,0,0.2c0,0.1,0,0.1,0,0.2
			c0,0.1,0,0.2,0.1,0.4c-0.1,0-0.2,0-0.2,0c0,0.1-0.1,0.1-0.3,0c0.1,0.3,0.1,0.6,0.1,0.7c0,0.2-0.1,0.4-0.2,0.5
			c-0.1,0.2-0.2,0.3-0.2,0.5c-0.1,0.2,0,0.4,0,0.7c-0.1,0-0.1,0-0.2,0.1c0,0-0.1,0.1-0.1,0.1c0,0-0.1,0.1-0.1,0.1c0,0-0.1,0-0.2,0
			c0.1,0.6,0.1,1.2,0.1,1.8c0,0.6,0,1.2-0.1,1.9c0,0.6,0,1.3,0,2c0,0.7,0.1,1.4,0.3,2.1c1-0.6,1.8-1.3,2.4-2.2
			c0.6-0.9,1.1-1.9,1.5-3.1c0.4-1.1,0.7-2.4,0.9-3.7c0.2-1.3,0.4-2.6,0.6-4c0.2-0.2,0.4-0.6,0.6-0.9c0.1-0.4,0.3-0.7,0.4-1.1
			c0.1-0.4,0.2-0.8,0.3-1.2c0.1-0.4,0.2-0.8,0.4-1.1c0.4,0.1,0.8,0.2,1.1,0.4c0.3,0.2,0.6,0.4,0.8,0.7c0.2,0.2,0.5,0.5,0.8,0.7
			c0.3,0.2,0.6,0.3,1,0.4c0.3,0.5,0.6,0.9,0.9,1.4c0.3,0.4,0.5,0.9,0.5,1.4c-0.1,0.2-0.2,0.5-0.3,0.7c-0.1,0.3-0.1,0.6-0.2,0.8
			c-0.1,0.3-0.2,0.5-0.3,0.8c-0.1,0.2-0.3,0.4-0.6,0.6c-0.1,0.7-0.2,1.4-0.3,2c-0.1,0.6-0.2,1.2-0.4,1.8c-0.1,0.6-0.2,1.2-0.3,1.8
			c-0.1,0.6-0.1,1.3-0.1,2.1c-0.2,0.6-0.5,1.3-0.7,2c-0.2,0.7-0.4,1.4-0.6,2c-0.4,0.4-0.8,0.8-1,1.3c-0.2,0.5-0.5,1-0.8,1.5
			c-0.1,0.1-0.2,0.1-0.2,0.1c0-0.1-0.1-0.1-0.3-0.1c0,0.1,0,0.2,0,0.2c0,0.1-0.1,0.1-0.1,0.1c0,0-0.1,0.1-0.1,0.2
			c0,0.1,0,0.2,0.1,0.3c-0.4,0.2-0.7,0.4-1,0.7c-0.3,0.3-0.6,0.6-1,0.8c-0.3,0.2-0.8,0.4-1.2,0.5c-0.5,0.1-1.1,0-1.9-0.3
			c-1.1-0.8-2.1-1.8-3-2.9C146.6,26.1,145.9,24.8,145.3,23.3z"/>
		<path class="st0" d="M181.3,19.6c0,0.1-0.1,0.3-0.1,0.4c0,0.1-0.1,0.2-0.1,0.3c0,0.1,0,0.2,0,0.3c0,0.1,0,0.3,0,0.5
			c-0.8,1.5-1.9,2.7-3.1,3.7c-1.3,1-2.6,1.9-4.2,2.6c-1.5,0.8-3.1,1.5-4.7,2.1c-1.6,0.6-3.2,1.3-4.8,2c-0.7-0.2-1.2-0.4-1.5-0.8
			c-0.3-0.4-0.6-0.8-0.8-1.4c-0.2-0.5-0.3-1.1-0.4-1.7c-0.1-0.6-0.1-1.3-0.2-1.9c0.1-0.3,0.2-0.6,0.4-0.8c0.2-0.2,0.2-0.5,0.2-0.9
			c0.2-0.7,0.4-1.4,0.7-2.1c0.2-0.7,0.4-1.4,0.4-2.1c0.1-0.2,0.2-0.4,0.5-0.5c0.1-1.3,0.1-2.7,0-4.1s-0.4-2.7-0.7-3.8
			c0-0.3,0.1-0.5,0.1-0.6c0-0.1,0-0.2,0-0.3c0-0.2,0-0.3,0.2-0.3c0.2,0,0.4,0,0.6,0c0-0.4-0.1-0.8-0.2-1.2c-0.2-0.4-0.3-0.9-0.4-1.4
			c0.2-0.4,0.3-0.8,0.4-1.2c0.1-0.4,0.2-0.8,0.4-1.1c1.5,0.5,2.9,1,4.3,1.7c1.4,0.7,2.7,1.2,4.1,1.5c1,0.7,2,1.4,3.1,2.1
			c1.1,0.7,2,1.5,2.9,2.3c0.9,0.8,1.6,1.8,2.2,2.9C180.9,16.8,181.2,18.1,181.3,19.6z M171.5,21.9c0.6-0.2,1.2-0.5,1.7-0.7
			c0.6-0.2,1.1-0.5,1.6-0.9c0.5-0.3,0.9-0.7,1.3-1.1c0.4-0.4,0.7-0.9,1-1.5c-0.2-0.3-0.4-0.6-0.7-0.9c-0.3-0.3-0.6-0.5-0.8-0.7
			c-0.3-0.2-0.5-0.5-0.8-0.7c-0.3-0.2-0.5-0.6-0.6-0.9c-0.4-0.1-0.7-0.2-1-0.3c-0.3-0.2-0.5-0.3-0.8-0.5c-0.3-0.2-0.5-0.3-0.8-0.4
			c-0.3-0.1-0.6-0.2-1-0.2c-0.6-0.3-1.2-0.5-1.6-0.7c-0.5-0.1-0.9-0.3-1.1-0.5c-0.2,0-0.3,0-0.5,0.1c0.3,1.1,0.5,2,0.6,3
			c0.1,0.9,0.2,1.9,0.2,2.8c0,0.9,0,1.9-0.1,2.8c-0.1,1-0.3,2-0.5,3.2c0.3,0,0.5-0.1,0.8-0.2c0.2-0.1,0.5-0.2,0.7-0.3
			c0.2-0.1,0.5-0.2,0.7-0.3c0.3-0.1,0.6-0.2,0.9-0.2c0.1-0.2,0.2-0.3,0.4-0.4C171.2,22.2,171.3,22.1,171.5,21.9z"/>
		<path class="st0" d="M206.2,18.4c0,0.3,0,0.7,0.1,1c0.1,0.3,0.2,0.6,0.3,0.9c0.1,0.3,0.2,0.6,0.4,0.9c0.1,0.3,0.2,0.6,0.2,0.9
			c0.1,0.4,0.1,0.8,0,1.3c-0.1,0.5-0.2,0.9-0.3,1.3c-0.1,0.4-0.3,0.8-0.5,1.2c-0.2,0.3-0.5,0.6-0.8,0.8c-0.4,0.5-0.9,0.9-1.4,1.2
			c-0.6,0.3-1.1,0.6-1.5,1c-0.3,0.2-0.6,0.3-1,0.4c-0.4,0.1-0.8,0.2-1.1,0.2c-0.3,0.2-0.7,0.3-1.1,0.5c-0.4,0.2-0.8,0.3-1.3,0.5
			c-0.4,0.2-0.9,0.3-1.3,0.3c-0.4,0.1-0.8,0.1-1.2,0.1c-0.8,0.3-1.6,0.5-2.4,0.6c-0.8,0.1-1.7,0-2.8-0.2c-1,0.1-1.9,0.1-2.8-0.1
			c-0.8-0.2-1.6-0.6-2.2-1.1c-0.7-0.5-1.2-1.1-1.7-1.7c-0.5-0.7-0.9-1.4-1.2-2.1c-0.2-1.6-0.2-3,0.2-4.3c0.3-1.3,0.8-2.5,1.4-3.6
			c0.6-1.1,1.3-2.1,2.1-3c0.8-0.9,1.6-1.8,2.3-2.7c0.2,0.1,0.3,0,0.4,0c0.1-0.1,0.2-0.2,0.3-0.3c0.1-0.1,0.2-0.2,0.3-0.4
			c0.1-0.1,0.2-0.2,0.4-0.2c0.2-0.4,0.5-0.7,0.9-0.9c0.4-0.2,0.7-0.5,0.9-0.9c0.2-0.1,0.5-0.1,0.6-0.2c0.2-0.1,0.3-0.2,0.5-0.4
			c0.2-0.1,0.3-0.3,0.5-0.4c0.2-0.1,0.4-0.2,0.6-0.3V8.1c0.5-0.2,0.9-0.5,1.1-0.8c0.2-0.3,0.5-0.6,0.9-1.1c0.2,0,0.5,0,0.6,0
			c0.2,0,0.4,0,0.7-0.1c0.2-0.4,0.4-0.7,0.6-0.9c0.2-0.2,0.5-0.4,0.8-0.6c0.3,0.2,0.7,0.3,1.1,0.3c0.4,0.1,0.8,0.2,1.1,0.5
			c0,0.3,0.1,0.5,0.2,0.6c0.1,0.2,0.3,0.3,0.5,0.4c0.2,0.1,0.3,0.3,0.5,0.4c0.2,0.1,0.3,0.3,0.3,0.6c0.1,0,0.2,0,0.2,0
			c0-0.1,0.1-0.1,0.2,0c0.1,0.4,0.2,0.6,0.3,0.8c0.1,0.1,0.2,0.4,0.3,0.7c-0.1,0.3-0.2,0.6-0.3,0.9c-0.1,0.3-0.2,0.5-0.5,0.6
			c0,0.2,0,0.3,0.2,0.3c0.1,0,0.2,0.1,0.2,0.2c0,0.2,0,0.4-0.1,0.5c0.7,1.1,1.3,2.2,1.8,3.4C205,16.2,205.6,17.3,206.2,18.4z
			 M201,22.3c0.1-0.3,0.3-0.6,0.4-0.7c0.2-0.2,0.3-0.5,0.3-0.9c-0.1-0.2-0.2-0.4-0.2-0.5c0-0.1,0-0.3,0-0.6
			c-0.6-0.9-1.1-1.8-1.6-2.8c-0.4-1-0.9-1.9-1.5-2.8c-0.1,0.1-0.2,0.2-0.3,0.3c-0.1,0.1-0.3,0.1-0.5-0.1c-0.1,0.2-0.2,0.4-0.3,0.5
			c-0.1,0.1-0.3,0.1-0.5,0.1c-0.2,0-0.3-0.1-0.5-0.1c-0.2-0.1-0.3-0.2-0.5-0.3c-0.8,0.6-1.6,1.3-2.4,1.9c-0.8,0.6-1.5,1.3-2.2,2.1
			c-0.1,0.1-0.2,0.1-0.2,0.1c0,0-0.1,0-0.2,0.1c-0.2,0.5-0.5,1-0.8,1.4c-0.3,0.4-0.6,0.9-0.9,1.3c-0.3,0.4-0.6,0.9-0.8,1.4
			c-0.2,0.5-0.3,1.1-0.4,1.7c0.5,0.4,1,0.6,1.7,0.7c0.6,0.1,1.3,0.1,2,0c0.7-0.1,1.3-0.1,2-0.3c0.7-0.1,1.3-0.2,1.8-0.2
			c1.2-0.3,2.2-0.6,3-1.1S200.1,22.8,201,22.3z"/>
	</g>
	<g>
		<path class="st1" d="M0.1,38.3c0.1-0.3,0.1-0.5,0.1-0.6c0-0.2,0-0.3-0.2-0.5c0.1-0.3,0.1-0.5,0.2-0.6c0-0.2,0-0.4,0-0.6
			c0.2-0.4,0.4-0.8,0.7-1.1c0.3-0.3,0.7-0.6,1.1-0.8c0.4-0.2,0.8-0.4,1.2-0.5c0.4-0.1,0.8-0.3,1.2-0.4c0-0.1,0-0.1-0.1-0.1
			c-0.1,0-0.1,0-0.1-0.1C5.1,32.6,6,32.3,7,32c0.9-0.3,1.9-0.6,2.9-0.9c1-0.3,2-0.4,3-0.5c1-0.1,2.1,0.1,3.3,0.4
			c0.1,0.2,0.2,0.4,0.3,0.6c0.1,0.2,0.2,0.4,0.4,0.6c0.1,0.2,0.2,0.4,0.4,0.5c0.1,0.2,0.2,0.4,0.2,0.5c0.2,0.2,0.4,0.4,0.5,0.6
			c0.1,0.2,0.2,0.5,0.1,0.9c-0.2,0.1-0.4,0.3-0.6,0.4c-0.2,0.1-0.4,0.3-0.6,0.4c-0.8-0.2-1.6-0.3-2.3-0.2c-0.8,0.1-1.5,0.1-2.1,0.2
			c-0.2-0.2-0.4-0.3-0.7-0.3c-0.3,0-0.5,0.1-0.8,0.1c-0.3,0.1-0.6,0.2-0.8,0.2c-0.3,0.1-0.5,0.1-0.8,0.1c-0.2,0.2-0.4,0.3-0.8,0.4
			c-0.3,0.1-0.6,0.1-1,0.1c0,0.1,0,0.1,0.1,0.2c0.1,0,0.1,0.1,0,0.2c0.1,0.2,0.3,0.3,0.5,0.3C8.2,36.9,8.4,37,8.6,37
			c0.2,0.1,0.4,0.1,0.6,0.2c0.2,0.1,0.3,0.2,0.3,0.5c0.3,0,0.6,0.1,0.8,0.2c0.2,0.1,0.4,0.3,0.6,0.5c0.2,0.2,0.3,0.4,0.3,0.7
			c0.1,0.2,0.1,0.4,0.1,0.6c0.1,0.2,0.1,0.2,0.2,0.2c0.1,0,0.2,0,0.3,0.1c0.1,0.3,0.2,0.5,0.5,0.8c0.3,0.3,0.4,0.6,0.6,0.9
			c0,0.5,0.1,1,0.1,1.4c0,0.4,0,0.8-0.2,1.2c-0.3,0.8-0.7,1.4-1.3,2.1c-0.6,0.6-1.2,1.1-1.9,1.6c-0.7,0.5-1.4,0.9-2.2,1.2
			c-0.8,0.3-1.5,0.6-2.3,0.8c-0.1,0-0.2,0-0.2,0c-0.1,0-0.1,0-0.1-0.2c-0.2,0.1-0.3,0.2-0.5,0.3c-0.2,0-0.4,0-0.6,0
			c-0.2,0-0.5,0-0.7,0c-0.2,0-0.5,0-0.7,0C2,50.1,1.9,50,1.8,49.9c-0.1-0.1-0.2-0.3-0.3-0.5c-0.1,0-0.1-0.1-0.1-0.2
			c0-0.1,0-0.1-0.1-0.1c0-0.1,0-0.1,0-0.2c0,0,0-0.1,0.1-0.1c0.1-0.1,0.1-0.1,0.1-0.1c0,0,0-0.1-0.1-0.1c0,0-0.1-0.1-0.1-0.1
			c0,0-0.1-0.1,0-0.1c0.1-0.2,0.1-0.3,0.1-0.6c0-0.2,0-0.4-0.1-0.7c0-0.2,0-0.4,0.1-0.6c0.1-0.2,0.2-0.4,0.4-0.5
			c0.7,0.1,1.4,0,2-0.1c0.6-0.1,1.2-0.3,1.8-0.6c0.6-0.2,1.1-0.5,1.6-0.8c0.5-0.3,1-0.5,1.5-0.8c0.1-0.2,0.1-0.3,0.2-0.4
			C9,43.2,9.1,43.1,9.2,43c0.1-0.1,0.2-0.2,0.3-0.4c0.1-0.1,0.2-0.3,0.2-0.5c0-0.1,0-0.1,0-0.2c0,0,0-0.1-0.1-0.1
			c0,0-0.1-0.1-0.1-0.1c0,0-0.1-0.1-0.1-0.2c-0.1,0-0.1,0-0.1-0.1c0,0-0.1,0-0.1,0c-0.5-0.2-0.9-0.4-1.4-0.6
			c-0.5-0.2-0.9-0.3-1.3-0.5c-0.2,0.1-0.4,0.2-0.6,0.1c-0.2-0.1-0.5-0.1-0.8-0.2c-0.7,0-1.4-0.1-2.1-0.2c-0.6-0.1-1.3-0.3-1.9-0.5
			c0-0.1-0.1-0.2-0.1-0.3c-0.1-0.1-0.2-0.1-0.4-0.1c-0.1-0.2-0.2-0.3-0.4-0.5S0.2,38.5,0.1,38.3z"/>
		<path class="st1" d="M20.6,48.2c0.1,0.5,0.1,0.9-0.1,1.2c-0.1,0.3-0.4,0.5-0.6,0.7c-0.3,0.1-0.6,0.2-0.9,0.2c-0.3,0-0.7,0-1-0.1
			c-0.2-0.2-0.3-0.5-0.5-0.9c-0.1-0.4-0.3-0.7-0.4-1.1c-0.1-0.4-0.2-0.8-0.3-1.2c-0.1-0.4-0.2-0.7-0.2-1c0.1-0.2,0.1-0.4,0.2-0.7
			c0-0.3,0-0.5,0.1-0.8c0-0.3,0-0.6,0-0.8c0-0.3,0-0.6,0.1-0.8c0.1-0.7,0.3-1.4,0.5-2.1c0.2-0.7,0.4-1.3,0.6-2.1c0-0.2,0-0.3,0-0.4
			c-0.1-0.1-0.1-0.3,0-0.4c0-0.1,0.1-0.1,0.2-0.1c0.1,0,0.1-0.1,0.2-0.2c0.1-0.2,0.1-0.3,0-0.5c0-0.1,0-0.3,0.1-0.4
			c0.1-0.1,0.2-0.3,0.3-0.6c0.1-0.3,0.2-0.5,0.1-0.8c0.2-0.1,0.3-0.2,0.4-0.4c0.1-0.1,0.3-0.3,0.4-0.4c0.1-0.1,0.3-0.2,0.5-0.3
			c0.2-0.1,0.4-0.1,0.7-0.1c0.1,0.2,0.2,0.4,0.3,0.6c0,0.2,0.1,0.4,0.1,0.6c0,0.2,0.1,0.4,0.2,0.6c0.1,0.2,0.2,0.3,0.4,0.4
			c0,0.1,0,0.3,0,0.5s0,0.4,0,0.6c0,0.2,0.1,0.4,0.1,0.5c0.1,0.2,0.2,0.3,0.3,0.3c-0.3,0.8-0.6,1.7-0.9,2.5
			c-0.3,0.8-0.5,1.6-0.7,2.5c-0.2,0.8-0.3,1.6-0.3,2.5C20.3,46.5,20.4,47.3,20.6,48.2z"/>
		<path class="st1" d="M41.5,49.5c-0.2,0.1-0.3,0.2-0.5,0.2c-0.1,0.1-0.3,0.1-0.5,0.1c-0.7-0.5-1-1.4-1.1-2.6c0-1.2,0.2-2.8,0.8-4.7
			c0.1-0.1,0.1-0.2,0.1-0.3l-0.2-0.3c-0.1,0-0.1,0-0.2,0c-0.1,0-0.1,0.1-0.1,0.2c-0.5,0.3-0.9,0.7-1.5,1c-0.5,0.4-1.1,0.7-1.7,1
			c-0.6,0.3-1.2,0.5-1.8,0.7c-0.6,0.2-1.2,0.3-1.8,0.3c-1.5,0-2.5-0.7-3.3-2.2l-0.2-0.4l-0.2,0.3c-0.1,0.1-0.1,0.2-0.2,0.4
			c-0.1,0.2-0.2,0.5-0.3,0.7c-0.1,0.3-0.2,0.6-0.3,0.8c-0.1,0.3-0.1,0.5-0.1,0.7c-0.2,0.2-0.3,0.3-0.5,0.5c-0.2,0.2-0.3,0.4-0.4,0.7
			c0,0.1,0,0.3,0.1,0.4c0,0.2-0.1,0.3-0.2,0.4c-0.1,0.1-0.1,0.2-0.2,0.2c-0.1,0.1-0.1,0.2-0.2,0.2c0,0.1-0.1,0.2-0.1,0.3
			c0,0.1,0,0.2,0,0.3c0,0.1,0,0.2-0.1,0.3c-0.3,0.6-0.5,1-0.7,1.2c-0.2,0.2-0.4,0.3-0.7,0.3c-0.1,0-0.4,0-0.7-0.1
			c-0.2-0.2-0.4-0.6-0.6-1c-0.2-0.4-0.3-0.9-0.4-1.4c-0.1-0.5-0.1-1-0.1-1.5c0-0.5,0.1-0.9,0.2-1.3c0,0,0.1-0.2,0.2-0.5
			c0.1-0.3,0.3-0.8,0.5-1.3c0.2-0.5,0.5-1.1,0.7-1.7c0.3-0.6,0.6-1.2,0.8-1.8c0.3-0.6,0.5-1.1,0.8-1.6c0.3-0.5,0.5-0.9,0.6-1.1
			c0.1-0.2,0.3-0.4,0.4-0.6c0.1-0.2,0.2-0.4,0.3-0.5c0.3-0.5,0.6-1,0.9-1.3c0.3-0.4,0.7-0.6,1.3-0.8c0.4,0.2,0.7,0.3,0.8,0.5
			l0.1,0.3c0.1,0.2,0.2,0.3,0.3,0.3c0.2,0.1,0.4,0.1,0.5,0.1c0.1,0,0.3,0.1,0.4,0.1c0.1,0.1,0.2,0.3,0.3,0.5
			c0.1,0.2,0.3,0.4,0.4,0.6c0.1,0.2,0.2,0.4,0.3,0.6c0.1,0.2,0.1,0.4,0.1,0.6c0,0.2,0,0.4-0.1,0.6l0,0.3c0.1,0.2,0.1,0.4,0.1,0.6
			c0,0.1,0,0.2,0,0.4c0,0.1,0,0.3,0.1,0.4c0.3,0.2,0.6,0.4,0.8,0.4c0.3,0,0.5-0.1,0.8-0.2c0.2-0.1,0.5-0.3,0.7-0.4
			c0.1-0.1,0.3-0.2,0.4-0.3c0.1-0.1,0.3-0.1,0.4-0.1c0.3-0.3,0.6-0.6,0.8-0.8c0.3-0.2,0.5-0.4,0.8-0.7c0.5-0.4,1-0.9,1.5-1.3
			c0.5-0.5,0.9-1.1,1.2-1.8c0.2-0.1,0.4-0.2,0.5-0.2c0.2,0,0.4,0,0.6,0.1c0.2,0.1,0.4,0.2,0.6,0.3c0.1,0,0.1,0.1,0.1,0.1
			c0,0,0.1,0,0.1,0.1c0,0.2,0.1,0.3,0.2,0.4c0.1,0.1,0.1,0.1,0.1,0.1c0,0,0,0,0.1,0.1c0.3,0.1,0.4,0.3,0.5,0.4
			c0.1,0.4,0.3,0.7,0.6,0.9c0,0.2,0,0.3,0,0.5c0,0.1,0.1,0.3,0.2,0.5c0,0.1,0,0.1,0.1,0.2c0,0.1,0,0.1,0.1,0.2l-0.5-0.1l0.1,0.5
			c0,0.2,0,0.5-0.1,0.8c-0.1,0.3-0.2,0.5-0.3,0.7c0,0.4,0,0.8,0,1.1c0,0.3,0,0.5,0,0.7c0,0.2-0.1,0.4-0.1,0.6
			c-0.1,0.2-0.1,0.4-0.2,0.6c0.1,1.1-0.1,2.1-0.4,3c-0.3,0.9-0.7,1.8-1,2.6c0,0.1-0.1,0.2-0.1,0.3c0,0.1-0.1,0.2-0.1,0.3
			c-0.2,0.1-0.3,0.1-0.4,0.2C41.8,49.4,41.7,49.4,41.5,49.5z"/>
		<path class="st1" d="M60.5,35.2c0,0.4,0.1,0.7,0.2,1c0.1,0.3,0.2,0.5,0.3,0.8c0.1,0.2,0.2,0.5,0.2,0.7c0.1,0.2,0.1,0.5,0.2,0.8
			c-0.1,0.4-0.2,0.9-0.3,1.2C61,40.2,61,40.6,60.9,41c-0.3,0.6-0.5,1.1-0.8,1.6c-0.3,0.5-0.5,0.9-0.6,1.2c-0.1,0.1-0.2,0.2-0.2,0.3
			c-0.1,0.1-0.1,0.2-0.2,0.4c0,0.1-0.1,0.1-0.1,0.2c-0.1,0.1-0.1,0.2-0.1,0.2l-0.5-0.2l-0.1,0.6l-0.4,0.1l-0.3,0.3
			c-0.3,0.6-0.7,1.1-1,1.4c-0.4,0.4-0.8,0.7-1.2,1c-0.5,0.3-1,0.6-1.6,0.8c-0.6,0.3-1.2,0.5-2,0.9c-0.3,0-0.5-0.1-0.8-0.1
			c-0.2,0-0.4,0-0.6,0c-0.3,0-0.7,0-1.2-0.1c-0.1-0.1-0.1-0.2-0.2-0.3c-0.1-0.1-0.2-0.1-0.3-0.1c-0.3-0.1-0.5-0.3-0.7-0.6
			c-0.1-0.3-0.3-0.6-0.4-0.9c-0.1-0.2-0.2-0.4-0.3-0.5c-0.1-0.2-0.2-0.3-0.3-0.5l0.4-0.1l-0.6-0.6c0-0.1-0.1-0.1-0.1-0.1
			c-0.1,0-0.1-0.1-0.1-0.1l0-0.4c-0.1-1.2-0.1-2.3-0.1-3.3c0-1,0.1-1.9,0.4-2.7v-0.3c0.1-0.4,0.1-0.7,0.2-0.9
			c0.1-0.3,0.1-0.5,0.1-0.7c0.1-0.4,0.1-0.7,0.2-1.1c0.2-0.1,0.4-0.2,0.5-0.3c0.1-0.1,0.2-0.3,0.3-0.4c0.2,0,0.4,0,0.5,0.1
			c0.1,0.1,0.2,0.2,0.3,0.4c0.1,0.2,0.2,0.3,0.3,0.5c0.1,0.2,0.3,0.3,0.6,0.4c0,0.1,0.1,0.3,0.1,0.4c0.1,0.1,0.1,0.3,0.2,0.5
			c0.1,0.3,0.3,0.6,0.4,0.9c0.1,0.3,0.2,0.6,0.2,0.9c-0.2,0.3-0.3,0.7-0.4,1.1c-0.1,0.4-0.2,0.9-0.2,1.3c0,0.4,0,0.9,0,1.3
			c0,0.4,0.1,0.7,0.2,1l0.2,0.3l0.4-0.1c0.5-0.1,1-0.3,1.4-0.5c0.4-0.2,0.8-0.4,1.2-0.6c0.4-0.2,0.7-0.5,1-0.8
			c0.3-0.3,0.7-0.7,1-1.1c0.4-0.4,0.7-0.9,0.9-1.4c0.3-0.5,0.5-1,0.7-1.6c0.2-0.6,0.3-1.1,0.4-1.6C57.9,37,58,36.5,58,36
			c0.3-0.1,0.4-0.3,0.4-0.6l-0.1-0.3c-0.1-0.1-0.1-0.2,0-0.4c0.1-0.3,0.3-0.6,0.7-0.8c0.3,0.2,0.5,0.4,0.7,0.6
			C60.1,34.8,60.3,35,60.5,35.2z"/>
		<path class="st1" d="M67.6,49.7c-0.5,0.2-1,0.3-1.6,0.5c-0.6,0.2-1.1,0.2-1.7,0.2c-0.9,0-1.5-0.2-2-0.6c-0.1-0.2-0.2-0.3-0.2-0.4
			c-0.1-0.1-0.1-0.1-0.1-0.2c0-0.1-0.1-0.2-0.1-0.3c-0.2-0.2-0.4-0.5-0.5-0.8c-0.1-0.3-0.2-0.6-0.2-1c0-0.3-0.1-0.7,0-1
			c0-0.3,0.1-0.7,0.2-1c0-0.1,0.1-0.1,0.1-0.2c0-0.1,0-0.1,0-0.2c0.1-0.3,0.1-0.5,0.2-0.8c0.1-0.3,0.2-0.5,0.3-0.7
			c-0.1-0.2-0.1-0.3,0-0.5c0.1-0.2,0.1-0.4,0.2-0.5c0.2-0.7,0.4-1.2,0.6-1.7c0.2-0.5,0.3-0.9,0.5-1.4c0.3-0.8,0.6-1.5,0.8-2.3
			c0.3-0.8,0.5-1.6,0.7-2.5c0.1-0.1,0.2-0.1,0.3-0.2c0.1,0,0.2-0.1,0.3-0.1c0.3,0.2,0.7,0.3,1.1,0.5c0.4,0.1,0.8,0.2,1,0.2
			c0.1,0.1,0.2,0.2,0.3,0.2c0,0,0.1,0.1,0.1,0.1c0.2,0.2,0.4,0.5,0.5,0.7c0.1,0.2,0.2,0.5,0.1,0.9c-0.1,0.2-0.2,0.2-0.2,0.2
			c-0.1,0.3-0.2,0.6-0.3,0.9c-0.1,0.2-0.2,0.5-0.3,0.7c-0.1,0.3-0.2,0.5-0.3,0.8c-0.1,0.3-0.2,0.6-0.3,1c-0.1,0.1-0.1,0.2-0.1,0.2
			c0,0.1-0.1,0.1-0.1,0.2c0,0.1-0.1,0.2-0.1,0.3c0,0.1-0.1,0.2-0.2,0.2c-0.1,0.5-0.1,0.8-0.2,1.1c-0.1,0.3-0.2,0.6-0.4,0.8
			c-0.2,0.5-0.4,1-0.6,1.5C65.1,45,65,45.6,65,46.2c0.1,0,0.2-0.1,0.2-0.1s0.2,0,0.2,0c0.2,0,0.3,0,0.5,0.1c0.5-0.3,1.1-0.4,1.7-0.5
			c0.6-0.1,1.2-0.1,1.8-0.1c0.2,0,0.5,0,0.7,0c0.2,0,0.5,0,0.7-0.1c0.2,0.1,0.3,0.1,0.3,0.1c0,0,0.1,0,0.2,0c0.1,0,0.2,0,0.3,0
			c0.2,0.2,0.4,0.3,0.6,0.4c0.2,0.1,0.4,0.2,0.6,0.2c0.2,0.1,0.4,0.1,0.6,0.2c0.2,0.1,0.4,0.2,0.5,0.3l0.2,1.1
			c0.1,0.2,0.2,0.3,0.2,0.3c0,0.1,0,0.2-0.1,0.3l0.1,0.3c-0.3,0.1-0.4,0.1-0.5,0.2c-0.1,0.1-0.2,0.1-0.3,0.2c-0.1,0-0.2,0-0.3,0
			c-0.1,0-0.1,0-0.2,0c-0.2,0-0.5,0-0.9,0.1c-0.5-0.2-1-0.2-1.5-0.2c-0.2,0-0.4,0-0.6,0c-0.2,0-0.4,0-0.6,0.1
			c-0.2,0-0.4,0.1-0.6,0.1c-0.2,0-0.4,0-0.7,0L67.6,49.7z"/>
		<path class="st1" d="M88.6,47.8c-0.1,0.3-0.3,0.6-0.5,0.9c-0.2,0.3-0.4,0.6-0.7,0.8c-0.3,0.2-0.6,0.4-0.9,0.6
			c-0.3,0.2-0.7,0.2-1,0.3c-0.2-0.1-0.4-0.1-0.5-0.2c-0.1-0.1-0.2-0.1-0.2-0.2c-0.1,0-0.1-0.1-0.1-0.1c0,0-0.1,0-0.1-0.1l-0.3-0.1
			l0.1-0.3c0-0.1,0-0.2,0-0.3c-0.1-0.1-0.2-0.2-0.3-0.3c-0.1-0.1-0.1-0.1-0.2-0.2c-0.1-0.1-0.1-0.1-0.1-0.2l-0.4-0.5l0.7-0.2
			c0.4-0.1,0.7-0.3,0.9-0.5c0.1-0.2,0.2-0.5,0.2-1c-0.3-0.1-0.6-0.1-0.9,0c-0.2,0.1-0.5,0.1-0.7,0.2c-0.3,0.1-0.6,0.2-0.9,0.2
			c-0.3,0.1-0.7,0.1-1.1,0.1c-0.1,0-0.3,0-0.4,0c-0.1,0-0.3,0-0.4,0l-0.3-0.1c0-0.2-0.1-0.3-0.1-0.3c0,0-0.1-0.1-0.1-0.1
			c-0.1-0.1-0.2-0.2-0.3-0.4c-0.1-0.1-0.1-0.3-0.1-0.6c-0.1-0.2-0.1-0.3-0.2-0.5c-0.1,0.2-0.2,0.4-0.2,0.6l-0.1,0.3l-0.3,0.1
			c0,0-0.1,0.1-0.1,0.1c0,0.1,0,0.1,0,0.1l-0.1,0.4c0,0-0.1,0.1-0.1,0.1c0,0-0.1,0.1-0.1,0.1c0,0.2-0.1,0.3-0.1,0.5
			c-0.1,0.2-0.1,0.3-0.2,0.4c-0.1,0.2-0.2,0.4-0.2,0.7c-0.1,0.2-0.1,0.4-0.1,0.6L78,49.2c-0.1,0.1-0.2,0.2-0.3,0.2
			c-0.1,0.1-0.2,0.1-0.3,0.2c0,0-0.1,0.1-0.1,0.1c-0.1,0-0.1,0-0.1,0.1l-0.1,0.3l-0.3,0.1c-0.2,0-0.3,0.1-0.4,0.1
			c-0.1,0-0.2,0-0.3,0l-0.3,0c-0.2-0.2-0.3-0.3-0.4-0.4c-0.1-0.1-0.2-0.2-0.4-0.3c-0.2-0.2-0.2-0.4-0.3-0.5c0-0.1,0-0.2-0.1-0.3
			c0-0.1-0.1-0.2-0.1-0.3c0-0.1,0-0.1-0.1-0.2l-0.3-0.3l0.3-0.2l0-0.4c0.3-0.9,0.7-1.7,1.1-2.5c0.4-0.8,0.8-1.6,1.2-2.5
			c0.1-0.3,0.3-0.6,0.4-0.8c0.1-0.3,0.3-0.6,0.4-0.8c0-0.1,0-0.1,0-0.2c0-0.1,0-0.1,0.1-0.2c0.2-0.3,0.3-0.6,0.5-0.8
			c0.1-0.2,0.2-0.5,0.4-0.7c0.1-0.3,0.3-0.6,0.4-0.9c0.1-0.3,0.3-0.6,0.6-0.9l0.4-0.2c0.1,0,0.1,0,0.2-0.1c0.1,0,0.1,0,0.2,0
			l0.4,0.1c0.5-0.2,0.9-0.5,1.3-0.9c0.4-0.4,0.7-0.9,1.1-1.5l0.3-0.4l0.3,0.2c0.1,0.1,0.2,0.1,0.4,0.1c0.2,0,0.3,0.1,0.5,0.1
			c0.3,0.1,0.6,0.1,0.9,0.2c0.3,0.1,0.5,0.2,0.7,0.4c0.1,0.3,0.2,0.5,0.2,0.6c0,0.1,0,0.3,0.1,0.4c0.1,0.3,0.1,0.6,0.1,0.9
			c0,0.3,0.1,0.6,0.1,1c0.1,0.3,0.2,0.6,0.2,0.9c0.1,0.3,0.1,0.6,0.2,0.9c0.1,0.4,0.2,0.8,0.3,1.2c0.1,0.4,0.2,0.8,0.3,1.1
			c0.1,0,0.2,0,0.3,0c0.1,0,0.2-0.1,0.3-0.1c0.1,0,0.2,0,0.3-0.1l0.3,0l0.1,0.3c0,0.1,0.1,0.2,0.3,0.3c0.2,0,0.4,0.1,0.5,0.1
			c0.1,0.1,0.2,0.2,0.3,0.2C90,43,90,43,90.1,43.1l0.4,0.2l-0.2,0.4c-0.2,0.3-0.4,0.6-0.7,0.9c-0.3,0.3-0.7,0.5-1.1,0.7
			c0,0.1,0,0.2,0,0.3c0,0.1,0,0.2,0.1,0.3c0.1,0.3,0.1,0.6,0.1,0.9c0,0.3,0,0.6,0,1L88.6,47.8z M81.1,43.3c0.5,0,1-0.1,1.4-0.1
			c0.4,0,0.9-0.1,1.4-0.2c-0.1-0.5-0.3-1.1-0.4-1.6c-0.1-0.6-0.3-1.1-0.4-1.7L83,39.9c-0.3,0.4-0.7,0.8-1,1.2
			c-0.3,0.4-0.6,0.9-0.8,1.3c-0.1,0.2-0.2,0.3-0.3,0.5c-0.1,0.2-0.2,0.3-0.3,0.5c0.1,0,0.2,0,0.3,0C81,43.3,81.1,43.3,81.1,43.3z"/>
		<path class="st1" d="M103.8,37.5c-0.4,0-0.9,0-1.4,0.1c-0.5,0.1-1,0.1-1.5,0.2c-0.3,0.1-0.7,0.1-1,0.1c-0.3,0-0.6,0.1-0.9,0.1
			c-0.1,0.4-0.2,0.7-0.4,1c-0.1,0.3-0.3,0.6-0.4,0.9c-0.1,0.3-0.3,0.6-0.4,0.9c-0.1,0.3-0.2,0.6-0.3,1c-0.2,0.3-0.3,0.5-0.4,0.8
			c-0.1,0.2-0.2,0.5-0.3,0.8c-0.2,0.3-0.4,0.5-0.5,0.8c-0.1,0.3-0.2,0.5-0.2,0.7l-0.1,0.3c-0.1,0.1-0.2,0.2-0.2,0.2
			c0,0.1-0.1,0.1-0.1,0.2c0,0.2-0.1,0.4-0.2,0.6c0,0.1-0.1,0.2-0.1,0.2c0,0.1,0,0.1,0,0.2c0,0.2,0,0.3-0.1,0.3c0,0.1,0,0.2,0,0.3
			c0,0.1,0,0.2-0.1,0.3c-0.1,0.2-0.1,0.4-0.1,0.5c0.1,0.1,0.1,0.1,0.1,0.2c0,0.1,0.1,0.1,0.1,0.2c0.1,0.1,0.2,0.1,0.2,0.1
			c0.1,0.1,0.2,0.1,0.3,0.2l0.2,0.3c0.1,0.5,0,0.9-0.2,1.2c-0.3,0.3-0.7,0.5-1.3,0.5h-0.3c-0.1-0.1-0.1-0.2-0.2-0.2
			c-0.1-0.1-0.3-0.1-0.3-0.1c-0.1,0-0.2-0.1-0.2-0.2c-0.2-0.1-0.4-0.2-0.5-0.3l-0.2-0.1c0-0.2,0-0.3,0-0.3c-0.1-0.2-0.2-0.3-0.3-0.5
			c-0.1-0.2-0.1-0.4-0.1-0.6c0-0.2-0.1-0.3-0.1-0.4c0-0.1-0.1-0.3-0.2-0.4c0-1,0.1-1.9,0.3-2.5c0.2-0.7,0.5-1.4,0.7-2
			c0.1-0.3,0.3-0.7,0.4-1.1c0.1-0.4,0.3-0.7,0.4-1.1l0.2-0.3c0.1-0.3,0.2-0.5,0.3-0.7c0.1-0.2,0.2-0.4,0.2-0.6
			c0.1-0.1,0.1-0.2,0.1-0.4c0-0.1,0.1-0.2,0.1-0.3c-0.1,0-0.2,0-0.3,0c-0.1,0-0.2,0-0.3,0c-0.1,0-0.2,0-0.3,0c-0.1,0-0.2,0-0.3,0
			c-0.1,0-0.2,0-0.3,0c-0.2,0.1-0.4,0.1-0.6,0.1h-0.3c-0.1,0-0.1,0-0.1,0c0,0-0.1,0-0.1,0c-0.2,0-0.3,0-0.4,0.1c-0.2,0-0.4,0-0.6,0
			h-0.3c0,0-0.1,0-0.1,0c-0.1,0-0.1,0-0.1,0c-0.1,0-0.3,0-0.4,0c-0.1,0-0.3-0.1-0.4-0.2c-0.2-0.3-0.3-0.4-0.4-0.4l-0.2-0.3
			c0-0.1,0-0.2-0.1-0.3c0-0.1-0.1-0.2-0.1-0.3c-0.1-0.2-0.1-0.4-0.2-0.6C89.1,36.5,89,36.3,89,36c0-0.1,0.1-0.2,0.1-0.3
			c0.1-0.1,0.1-0.1,0.1-0.2l0.1-0.4l0.3,0h0.7c0.6,0,1.1,0,1.7-0.1c0.6,0,1.2-0.1,1.8-0.1c0.3,0,0.7-0.1,1.1-0.1
			c0.4,0,0.7-0.1,1.1-0.1c0.1-0.2,0.1-0.3,0.2-0.4l0.3-0.1c0.3,0,0.5,0,0.7,0.1c0.1,0.1,0.2,0.2,0.3,0.3c0.4,0,0.8-0.1,1.2-0.1
			c0.4,0,0.8-0.1,1.2-0.2c0.6-0.1,1.2-0.2,1.8-0.2c0.6-0.1,1.2-0.1,1.7-0.1c0.2,0,0.5,0,0.7,0c0.2,0,0.4,0,0.6,0.1l0.3,0.2
			c0.1,0.1,0.1,0.2,0.2,0.3c0.1,0.1,0.2,0.2,0.3,0.3c0.2,0.2,0.4,0.4,0.6,0.7c0.2,0.3,0.3,0.6,0.2,1.1c-0.1,0.2-0.2,0.3-0.3,0.4
			l-0.2,0.3l-0.3,0c-0.1,0-0.2,0-0.3,0c-0.1,0-0.2,0.1-0.3,0.1c-0.1,0-0.1,0.1-0.2,0.1c-0.1,0-0.1,0-0.2,0.1c-0.2,0-0.3,0-0.4,0
			C104,37.5,103.9,37.5,103.8,37.5z"/>
		<path class="st1" d="M116.1,42.2c0,0.2,0,0.4,0.1,0.6c0.1,0.2,0.1,0.4,0.2,0.6c0.1,0.2,0.2,0.4,0.2,0.6c0.1,0.2,0.1,0.4,0.2,0.6
			c0,0.2,0,0.5,0,0.8c0,0.3-0.1,0.6-0.2,0.8c-0.1,0.3-0.2,0.5-0.3,0.7c-0.1,0.2-0.3,0.4-0.5,0.5c-0.2,0.3-0.5,0.6-0.9,0.7
			c-0.3,0.2-0.7,0.4-1,0.6c-0.2,0.1-0.4,0.2-0.6,0.3c-0.2,0.1-0.5,0.1-0.7,0.2c-0.2,0.1-0.4,0.2-0.7,0.3c-0.3,0.1-0.5,0.2-0.8,0.3
			c-0.3,0.1-0.6,0.2-0.8,0.2c-0.3,0-0.5,0.1-0.7,0c-0.5,0.2-1,0.3-1.5,0.4c-0.5,0.1-1.1,0-1.7-0.1c-0.6,0.1-1.2,0.1-1.7-0.1
			c-0.5-0.1-1-0.4-1.4-0.7c-0.4-0.3-0.8-0.7-1.1-1.1c-0.3-0.4-0.5-0.9-0.7-1.3c-0.1-1-0.1-1.9,0.1-2.7s0.5-1.5,0.9-2.2
			c0.4-0.7,0.8-1.3,1.3-1.9c0.5-0.6,1-1.1,1.5-1.7c0.1,0,0.2,0,0.2,0c0.1,0,0.1-0.1,0.2-0.2c0.1-0.1,0.1-0.2,0.2-0.2
			c0.1-0.1,0.1-0.1,0.2-0.1c0.1-0.3,0.3-0.5,0.5-0.6c0.2-0.1,0.4-0.3,0.6-0.6c0.2,0,0.3-0.1,0.4-0.2c0.1-0.1,0.2-0.1,0.3-0.2
			c0.1-0.1,0.2-0.2,0.3-0.2c0.1-0.1,0.2-0.1,0.4-0.2v-0.3c0.3-0.1,0.5-0.3,0.7-0.5c0.1-0.2,0.3-0.4,0.5-0.7c0.2,0,0.3,0,0.4,0
			c0.1,0,0.2,0,0.4-0.1c0.1-0.2,0.3-0.4,0.4-0.5c0.1-0.1,0.3-0.3,0.5-0.4c0.2,0.1,0.4,0.2,0.7,0.2c0.3,0,0.5,0.1,0.7,0.3
			c0,0.2,0.1,0.3,0.2,0.4c0.1,0.1,0.2,0.2,0.3,0.3c0.1,0.1,0.2,0.2,0.3,0.2c0.1,0.1,0.2,0.2,0.2,0.4c0.1,0,0.1,0,0.1,0
			c0,0,0.1,0,0.1,0c0.1,0.2,0.1,0.4,0.2,0.5c0.1,0.1,0.1,0.2,0.2,0.5c-0.1,0.2-0.2,0.4-0.2,0.5c0,0.2-0.2,0.3-0.3,0.4
			c0,0.1,0,0.2,0.1,0.2c0.1,0,0.1,0.1,0.2,0.1c0,0.2,0,0.3-0.1,0.3c0.4,0.7,0.8,1.4,1.1,2.1C115.3,40.8,115.7,41.5,116.1,42.2z
			 M112.9,44.7c0.1-0.2,0.2-0.3,0.3-0.5c0.1-0.1,0.2-0.3,0.2-0.5c-0.1-0.1-0.1-0.2-0.2-0.3c0-0.1,0-0.2,0-0.4
			c-0.4-0.5-0.7-1.1-1-1.7c-0.3-0.6-0.6-1.2-0.9-1.7c0,0.1-0.1,0.1-0.2,0.2c-0.1,0.1-0.2,0.1-0.3-0.1c0,0.1-0.1,0.2-0.2,0.3
			c-0.1,0.1-0.2,0.1-0.3,0.1c-0.1,0-0.2,0-0.3-0.1c-0.1,0-0.2-0.1-0.3-0.2c-0.5,0.4-1,0.8-1.5,1.2c-0.5,0.4-1,0.8-1.3,1.3
			c-0.1,0-0.1,0-0.1,0c0,0-0.1,0-0.2,0c-0.1,0.3-0.3,0.6-0.5,0.9c-0.2,0.3-0.4,0.5-0.6,0.8c-0.2,0.3-0.4,0.6-0.5,0.9
			c-0.1,0.3-0.2,0.7-0.2,1.1c0.3,0.2,0.6,0.4,1,0.4c0.4,0.1,0.8,0.1,1.2,0c0.4,0,0.8-0.1,1.2-0.2c0.4-0.1,0.8-0.1,1.1-0.1
			c0.7-0.2,1.3-0.4,1.9-0.7C111.7,45.2,112.3,45,112.9,44.7z"/>
		<path class="st1" d="M121.9,47.3c-0.2,0.7-0.4,1.2-0.5,1.6c-0.1,0.4-0.4,0.7-0.7,1.1c-0.2,0-0.4,0-0.5,0.1
			c-0.1,0.1-0.2,0.2-0.3,0.2c-0.2,0-0.3,0-0.3,0c-0.1,0-0.1-0.1-0.2-0.1c-0.1,0-0.1-0.1-0.2-0.1c-0.1,0-0.2-0.1-0.4-0.1
			c0-0.1-0.1-0.3-0.1-0.4c0-0.1-0.2-0.2-0.4-0.1c0-0.1,0-0.3,0-0.4c0-0.1,0-0.2-0.1-0.3c0-0.1,0-0.2-0.1-0.2c0-0.1,0-0.2,0-0.3
			c-0.1,0-0.2-0.1-0.2-0.2c-0.1-0.1-0.1-0.2-0.2-0.4c0.1-0.3,0.1-0.6,0.2-0.9c0.1-0.3,0.1-0.5,0.2-0.8c0.1-0.2,0.1-0.5,0.2-0.7
			c0.1-0.2,0-0.5-0.1-0.8c0.1,0.1,0.1,0,0.2,0c0-0.1,0.1-0.2,0.1-0.3c0-0.1,0-0.3,0-0.4s0-0.2,0-0.3c0.2-0.4,0.3-0.9,0.4-1.4
			c0.1-0.5,0.2-0.9,0.3-1.4c0.1-0.5,0.2-0.9,0.3-1.4c0.1-0.4,0.2-0.9,0.4-1.2c0.2,0,0.4,0,0.6,0.1c0.2,0.1,0.4,0.2,0.4,0.3
			c0.4-0.3,0.8-0.8,1.2-1.3c0.3-0.5,0.7-1,1.1-1.4s0.8-0.9,1.2-1.2c0.4-0.4,1-0.6,1.7-0.6c0.3,0.3,0.7,0.5,1.2,0.8
			c0.4,0.3,0.8,0.6,1.1,1.1c0.1,0.1,0.3,0.1,0.4,0.2c0.1,0.1,0.2,0.2,0.4,0.2v0.3c0.2,0.2,0.4,0.4,0.5,0.7c0.1,0.3,0.2,0.5,0.4,0.8
			c0.1,0.3,0.2,0.6,0.3,0.9c0.1,0.3,0.2,0.6,0.4,0.8c0,0.1-0.1,0.2-0.1,0.2c0,0.1,0,0.1,0,0.2c0,0.1,0,0.1,0.1,0.2
			c0,0.1,0,0.2,0,0.3c-0.1,0.8-0.3,1.4-0.7,1.8c-0.4,0.5-1,0.9-1.6,1.2c-0.6,0.3-1.3,0.6-2,0.8c-0.7,0.2-1.3,0.4-1.9,0.7
			c0,0.1,0,0.1,0.1,0.1c0.1,0,0.1,0,0.1,0.1c0.4,0.3,0.7,0.5,1,0.6c0.2,0.2,0.5,0.3,0.7,0.4c0.2,0.1,0.4,0.2,0.7,0.3
			c0.3,0.1,0.6,0.2,1.1,0.3c0.4,0.1,0.8,0.2,1.1,0.2c0.3,0.1,0.5,0.1,0.7,0.2c0.2,0,0.4,0.1,0.6,0.1c0.2,0,0.5,0.1,0.9,0.1
			c0.2,0.2,0.3,0.3,0.4,0.6c0.1,0.2,0.2,0.4,0.2,0.6c0,0.2,0,0.4,0,0.6c0,0.2-0.1,0.4-0.2,0.5c0,0.1,0.1,0.1,0.1,0.1
			c0.1,0,0.1,0,0.2,0c-0.1,0.1-0.2,0.2-0.3,0.3c-0.1,0.1-0.1,0.2-0.2,0.3c-0.1,0.1-0.1,0.2-0.2,0.3c-0.1,0.1-0.2,0.1-0.4,0.1
			c-0.5,0.2-1.2,0.2-2,0c-0.8-0.2-1.8-0.5-3.1-1c-0.6-0.2-1.1-0.5-1.5-0.6c-0.4-0.2-0.7-0.4-1-0.5c-0.3-0.2-0.5-0.4-0.8-0.6
			C122.5,47.8,122.2,47.6,121.9,47.3z M125.6,38.4c-0.2,0.3-0.4,0.5-0.6,0.8c-0.2,0.2-0.5,0.5-0.7,0.7c-0.2,0.2-0.4,0.5-0.6,0.8
			c-0.2,0.3-0.3,0.6-0.4,1c0.6-0.1,1.2-0.2,1.9-0.5c0.7-0.3,1.3-0.5,1.9-0.8c-0.1-0.5-0.3-1-0.6-1.3
			C126.2,38.7,125.9,38.5,125.6,38.4z"/>
	</g>
	<g>
		<path class="st2" d="M122.7,69.9c0.7,0.2,1.1,0.6,1.2,1.1c0.1,0.5,0,1-0.2,1.4c-0.2,0.5-0.6,0.8-1.1,1.1c-0.5,0.3-0.9,0.3-1.4,0.2
			c0,0.2-0.1,0.4-0.3,0.5c-0.2,0.1-0.3,0.2-0.3,0.4c-2.6,0.8-5.2,1.7-7.8,2.7c-2.6,1-5.3,1.9-8,2.6c-2.1,0.2-3.9,0.2-5.4-0.2
			c-0.6-0.4-1.2-0.9-1.6-1.6c-0.4-0.7-0.7-1.4-0.9-2.2c-0.2-0.8-0.3-1.6-0.3-2.4c0-0.8,0.1-1.5,0.2-2.1c1.1-2,2.4-3.9,3.6-5.8
			c1.3-1.9,2.8-3.6,4.6-5.1c0.5-0.8,1-1.5,1.7-2.1c0.7-0.6,1.3-1.3,1.8-2c-0.9-0.2-1.7-0.2-2.6-0.1c-0.9,0.1-1.8,0.3-2.6,0.6
			c-0.8,0.3-1.6,0.6-2.4,0.9c-0.7,0.3-1.4,0.6-1.9,0.8c-0.5-0.2-1-0.2-1.6-0.1c-0.6,0.1-1.2,0-1.8-0.1c-0.4-0.2-0.6-0.5-0.8-1
			c-0.2-0.4-0.3-0.9-0.4-1.3c-0.1-0.5-0.2-0.9-0.2-1.3c-0.1-0.4-0.2-0.8-0.3-1c0.2-0.4,0.3-0.8,0.4-1.1c0.1-0.4,0.3-0.7,0.5-1.1
			c1.2-0.5,2.6-1,4.1-1.5c1.5-0.5,3.1-0.8,4.6-1c1.6-0.2,3.1-0.2,4.6-0.1c1.5,0.1,2.9,0.6,4.2,1.2c0.2,0.7,0.6,1.3,1.1,1.7
			c0.5,0.4,1.1,0.6,1.7,0.8c0.4,0.5,0.7,1,1,1.5c0.3,0.5,0.5,1.1,0.7,1.7c-0.3,1.5-0.9,2.8-1.8,4c-0.8,1.1-1.7,2.2-2.6,3.1
			c-0.5,0.5-1,1-1.6,1.4c-0.6,0.4-1.1,0.9-1.5,1.4c-0.1,0.1-0.1,0.3-0.1,0.5c0,0.2-0.1,0.3-0.1,0.4c-0.4,0.5-0.9,1-1.5,1.4
			c-0.5,0.4-1,0.9-1.5,1.4c-0.3,0.4-0.6,0.7-0.7,1.1c-0.2,0.4-0.4,0.7-0.8,1.1c0.5,0.1,1,0.1,1.5,0c0.5-0.1,0.9-0.2,1.4-0.4
			c0.5-0.2,1-0.3,1.5-0.5c0.5-0.2,1.1-0.3,1.6-0.3c0.7-0.4,1.6-0.8,2.5-1.1c0.9-0.3,1.9-0.6,2.8-0.6c0.8-0.4,1.5-0.8,2.2-1.1
			c0.7-0.3,1.4-0.4,2.1-0.4c0.4,0.1,0.7,0.3,0.9,0.6c0.2,0.3,0.5,0.5,0.9,0.6c0,0.3,0,0.5,0,0.7C122.6,69.3,122.7,69.5,122.7,69.9z"
			/>
		<path class="st2" d="M131.5,76.5c-1,0.3-2,0.4-2.9,0.3c-0.9-0.1-1.8-0.5-2.6-0.9c-0.8-0.5-1.5-1.1-2.1-1.8
			c-0.6-0.7-1.2-1.5-1.6-2.4c-0.5-1.9-0.7-3.6-0.6-5.3c0.1-1.6,0.4-3.1,0.9-4.6c0.5-1.4,1-2.8,1.7-4.1c0.7-1.3,1.3-2.5,1.9-3.7
			c0.2,0.1,0.3,0,0.4-0.1c0.1-0.1,0.2-0.2,0.3-0.4c0.1-0.1,0.1-0.3,0.2-0.4c0.1-0.1,0.2-0.3,0.3-0.3c0.1-0.3,0.2-0.5,0.3-0.7
			c0.1-0.2,0.3-0.4,0.4-0.6c0.2-0.2,0.3-0.4,0.4-0.6c0.1-0.2,0.2-0.4,0.3-0.7c0.2-0.1,0.4-0.2,0.6-0.4c0.2-0.2,0.3-0.4,0.5-0.5
			c0.1-0.2,0.3-0.4,0.4-0.5c0.2-0.2,0.3-0.3,0.6-0.4l-0.1-0.5c0.5-0.4,0.8-0.8,1-1.1c0.2-0.4,0.4-0.8,0.7-1.4
			c0.3-0.1,0.5-0.1,0.6-0.2c0.2,0,0.4-0.1,0.7-0.2c0.2-0.5,0.3-0.9,0.5-1.2c0.2-0.3,0.4-0.6,0.7-0.9c0.4,0.2,0.8,0.2,1.2,0.3
			c0.4,0,0.8,0.2,1.2,0.5c0.1,0.3,0.2,0.6,0.4,0.8c0.2,0.2,0.4,0.3,0.6,0.4c0.2,0.1,0.4,0.3,0.6,0.4c0.2,0.2,0.3,0.4,0.4,0.7
			c0.1,0,0.2-0.1,0.2-0.1c0-0.1,0.1-0.1,0.2-0.1c0.1,0.2,0.2,0.4,0.2,0.5c0.1,0.1,0.1,0.2,0.2,0.4c0.1,0.1,0.2,0.2,0.2,0.3
			c0.1,0.1,0.2,0.3,0.3,0.5c-0.1,0.3-0.2,0.7-0.2,1.1c0,0.4-0.2,0.7-0.5,0.9c0,0.2,0.1,0.3,0.3,0.3c0.2,0,0.3,0.1,0.3,0.3
			c0,0.3,0,0.5,0,0.7c0.9,1.2,1.7,2.5,2.5,3.9c0.8,1.4,1.6,2.6,2.5,3.8c0,0.4,0.1,0.8,0.2,1.2c0.2,0.4,0.3,0.7,0.5,1.1
			c0.2,0.3,0.4,0.7,0.5,1c0.2,0.3,0.3,0.7,0.4,1.1c0.1,0.5,0.2,1,0.3,1.6c0,0.6,0,1.1,0,1.6c-0.1,0.5-0.2,1-0.4,1.5
			c-0.2,0.5-0.4,0.8-0.7,1.1c-0.1,0-0.2,0.1-0.4,0.3c-0.2,0.2-0.5,0.5-0.7,0.8c-0.3,0.3-0.5,0.7-0.8,1c-0.3,0.4-0.5,0.7-0.7,1
			c-0.3,0.3-0.6,0.5-1,0.6c-0.4,0.2-0.8,0.3-1.2,0.5c-0.3,0.3-0.6,0.5-1.1,0.8c-0.4,0.3-0.8,0.6-1.3,0.8c-0.5,0.2-0.9,0.4-1.3,0.6
			c-0.4,0.2-0.9,0.2-1.2,0.2c-0.8,0.5-1.7,0.9-2.5,1.1C133.7,76.6,132.7,76.6,131.5,76.5z M130.1,61c-0.1,0.7-0.3,1.3-0.5,1.9
			c-0.2,0.6-0.4,1.1-0.6,1.7c-0.2,0.6-0.4,1.2-0.5,1.8c-0.1,0.6-0.1,1.4,0,2.2c0.5,0.4,1.1,0.6,1.7,0.6c0.6,0,1.3-0.1,1.9-0.2
			c0.6-0.2,1.2-0.4,1.8-0.6c0.6-0.2,1.2-0.4,1.7-0.5c0-0.2,0-0.4,0.2-0.4c0.9-0.2,1.7-0.7,2.4-1.4c0.7-0.7,1.5-1.4,2.2-2.1
			c0.1-0.4,0.2-0.7,0.3-1c0.1-0.3,0.2-0.6,0.1-1.1c-0.2-0.3-0.3-0.5-0.3-0.6c0-0.1-0.1-0.4-0.2-0.7c-0.7-0.9-1.4-2-2-3.1
			c-0.6-1.1-1.2-2.2-1.9-3.1c0,0.1-0.1,0.3-0.2,0.4c-0.1,0.2-0.3,0.2-0.5,0c-0.1,0.6-0.3,0.8-0.6,0.8c-0.3,0-0.7-0.1-1-0.3
			c-0.6,0.9-1.3,1.8-1.9,2.6c-0.6,0.9-1.2,1.8-1.6,2.9c-0.1,0.1-0.2,0.1-0.2,0.1C130.3,60.9,130.2,60.9,130.1,61z"/>
		<path class="st2" d="M160.1,72.3c-1,0.3-2,0.4-2.9,0.3c-0.9-0.1-1.8-0.5-2.6-0.9c-0.8-0.5-1.5-1.1-2.1-1.8
			c-0.6-0.7-1.2-1.5-1.6-2.4c-0.5-1.9-0.7-3.6-0.6-5.3c0.1-1.6,0.4-3.1,0.9-4.6c0.5-1.4,1-2.8,1.7-4.1c0.7-1.3,1.3-2.5,1.9-3.7
			c0.2,0.1,0.3,0,0.4-0.1c0.1-0.1,0.2-0.2,0.3-0.4c0.1-0.1,0.1-0.3,0.2-0.4c0.1-0.1,0.2-0.3,0.3-0.3c0.1-0.3,0.2-0.5,0.3-0.7
			c0.1-0.2,0.3-0.4,0.4-0.6c0.2-0.2,0.3-0.4,0.4-0.6c0.1-0.2,0.2-0.4,0.3-0.7c0.2-0.1,0.4-0.2,0.6-0.4c0.2-0.2,0.3-0.4,0.5-0.5
			c0.1-0.2,0.3-0.4,0.4-0.5c0.2-0.2,0.3-0.3,0.6-0.4l-0.1-0.5c0.5-0.4,0.8-0.8,1-1.1c0.2-0.4,0.4-0.8,0.7-1.4
			c0.3-0.1,0.5-0.1,0.6-0.2c0.2,0,0.4-0.1,0.7-0.2c0.2-0.5,0.3-0.9,0.5-1.2c0.2-0.3,0.4-0.6,0.7-0.9c0.4,0.2,0.8,0.2,1.2,0.3
			c0.4,0,0.8,0.2,1.2,0.5c0.1,0.3,0.2,0.6,0.4,0.8c0.2,0.2,0.4,0.3,0.6,0.4c0.2,0.1,0.4,0.3,0.6,0.4c0.2,0.2,0.3,0.4,0.4,0.7
			c0.1,0,0.2-0.1,0.2-0.1c0-0.1,0.1-0.1,0.2-0.1c0.1,0.2,0.2,0.4,0.2,0.5c0.1,0.1,0.1,0.2,0.2,0.4c0.1,0.1,0.2,0.2,0.2,0.3
			c0.1,0.1,0.2,0.3,0.3,0.5c-0.1,0.3-0.2,0.7-0.2,1.1c0,0.4-0.2,0.7-0.5,0.9c0,0.2,0.1,0.3,0.3,0.3c0.2,0,0.3,0.1,0.3,0.3
			c0,0.3,0,0.5,0,0.7c0.9,1.2,1.7,2.5,2.5,3.9c0.8,1.4,1.6,2.6,2.5,3.8c0,0.4,0.1,0.8,0.2,1.2c0.2,0.4,0.3,0.7,0.5,1.1
			c0.2,0.3,0.4,0.7,0.5,1c0.2,0.3,0.3,0.7,0.4,1.1c0.1,0.5,0.2,1,0.3,1.6c0,0.6,0,1.1,0,1.6c-0.1,0.5-0.2,1-0.4,1.5
			c-0.2,0.5-0.4,0.8-0.7,1.1c-0.1,0-0.2,0.1-0.4,0.3c-0.2,0.2-0.5,0.5-0.7,0.8c-0.3,0.3-0.5,0.7-0.8,1c-0.3,0.4-0.5,0.7-0.7,1
			c-0.3,0.3-0.6,0.5-1,0.6c-0.4,0.2-0.8,0.3-1.2,0.5c-0.3,0.3-0.6,0.5-1.1,0.8c-0.4,0.3-0.8,0.6-1.3,0.8c-0.5,0.2-0.9,0.4-1.3,0.6
			c-0.4,0.2-0.9,0.2-1.2,0.2c-0.8,0.5-1.7,0.9-2.5,1.1C162.2,72.3,161.2,72.4,160.1,72.3z M158.7,56.8c-0.1,0.7-0.3,1.3-0.5,1.9
			c-0.2,0.6-0.4,1.1-0.6,1.7c-0.2,0.6-0.4,1.2-0.5,1.8c-0.1,0.6-0.1,1.4,0,2.2c0.5,0.4,1.1,0.6,1.7,0.6c0.6,0,1.3-0.1,1.9-0.2
			c0.6-0.2,1.2-0.4,1.8-0.6c0.6-0.2,1.2-0.4,1.7-0.5c0-0.2,0-0.4,0.2-0.4c0.9-0.2,1.7-0.7,2.4-1.4c0.7-0.7,1.5-1.4,2.2-2.1
			c0.1-0.4,0.2-0.7,0.3-1c0.1-0.3,0.2-0.6,0.1-1.1c-0.2-0.3-0.3-0.5-0.3-0.6c0-0.1-0.1-0.4-0.2-0.7c-0.7-0.9-1.4-2-2-3.1
			c-0.6-1.1-1.2-2.2-1.9-3.1c0,0.1-0.1,0.3-0.2,0.4c-0.1,0.2-0.3,0.2-0.5,0c-0.1,0.6-0.3,0.8-0.6,0.8c-0.3,0-0.7-0.1-1-0.3
			c-0.6,0.9-1.3,1.8-1.9,2.6c-0.6,0.9-1.2,1.8-1.6,2.9c-0.1,0.1-0.2,0.1-0.2,0.1C158.9,56.7,158.8,56.7,158.7,56.8z"/>
		<path class="st2" d="M188.6,68c-1,0.3-2,0.4-2.9,0.3c-0.9-0.1-1.8-0.5-2.6-0.9c-0.8-0.5-1.5-1.1-2.1-1.8c-0.6-0.7-1.2-1.5-1.6-2.4
			c-0.5-1.9-0.7-3.6-0.6-5.3c0.1-1.6,0.4-3.1,0.9-4.6c0.5-1.4,1-2.8,1.7-4.1c0.7-1.3,1.3-2.5,1.9-3.7c0.2,0.1,0.3,0,0.4-0.1
			c0.1-0.1,0.2-0.2,0.3-0.4c0.1-0.1,0.1-0.3,0.2-0.4c0.1-0.1,0.2-0.3,0.3-0.3c0.1-0.3,0.2-0.5,0.3-0.7c0.1-0.2,0.3-0.4,0.4-0.6
			c0.2-0.2,0.3-0.4,0.4-0.6c0.1-0.2,0.2-0.4,0.3-0.7c0.2-0.1,0.4-0.2,0.6-0.4c0.2-0.2,0.3-0.4,0.5-0.5c0.1-0.2,0.3-0.4,0.4-0.5
			c0.2-0.2,0.3-0.3,0.6-0.4l-0.1-0.5c0.5-0.4,0.8-0.8,1-1.1c0.2-0.4,0.4-0.8,0.7-1.4c0.3-0.1,0.5-0.1,0.6-0.2c0.2,0,0.4-0.1,0.7-0.2
			c0.2-0.5,0.3-0.9,0.5-1.2c0.2-0.3,0.4-0.6,0.7-0.9c0.4,0.2,0.8,0.2,1.2,0.3c0.4,0,0.8,0.2,1.2,0.5c0.1,0.3,0.2,0.6,0.4,0.8
			c0.2,0.2,0.4,0.3,0.6,0.4c0.2,0.1,0.4,0.3,0.6,0.4c0.2,0.2,0.3,0.4,0.4,0.7c0.1,0,0.2-0.1,0.2-0.1c0-0.1,0.1-0.1,0.2-0.1
			c0.1,0.2,0.2,0.4,0.2,0.5c0.1,0.1,0.1,0.2,0.2,0.4c0.1,0.1,0.2,0.2,0.2,0.3c0.1,0.1,0.2,0.3,0.3,0.5c-0.1,0.3-0.2,0.7-0.2,1.1
			c0,0.4-0.2,0.7-0.5,0.9c0,0.2,0.1,0.3,0.3,0.3c0.2,0,0.3,0.1,0.3,0.3c0,0.3,0,0.5,0,0.7c0.9,1.2,1.7,2.5,2.5,3.9
			c0.8,1.4,1.6,2.6,2.5,3.8c0,0.4,0.1,0.8,0.2,1.2c0.2,0.4,0.3,0.7,0.5,1.1c0.2,0.3,0.4,0.7,0.5,1c0.2,0.3,0.3,0.7,0.4,1.1
			c0.1,0.5,0.2,1,0.3,1.6c0,0.6,0,1.1,0,1.6c-0.1,0.5-0.2,1-0.4,1.5c-0.2,0.5-0.4,0.8-0.7,1.1c-0.1,0-0.2,0.1-0.4,0.3
			c-0.2,0.2-0.5,0.5-0.7,0.8c-0.3,0.3-0.5,0.7-0.8,1c-0.3,0.4-0.5,0.7-0.7,1c-0.3,0.3-0.6,0.5-1,0.6c-0.4,0.2-0.8,0.3-1.2,0.5
			c-0.3,0.3-0.6,0.5-1.1,0.8c-0.4,0.3-0.8,0.6-1.3,0.8c-0.4,0.2-0.9,0.4-1.3,0.6c-0.4,0.2-0.9,0.2-1.2,0.2c-0.8,0.5-1.7,0.9-2.5,1.1
			C190.8,68.1,189.8,68.1,188.6,68z M187.2,52.6c-0.1,0.7-0.3,1.3-0.5,1.9c-0.2,0.6-0.4,1.1-0.6,1.7c-0.2,0.6-0.4,1.2-0.5,1.8
			c-0.1,0.6-0.1,1.4,0,2.2c0.5,0.4,1.1,0.6,1.7,0.6c0.6,0,1.3-0.1,1.9-0.2c0.6-0.2,1.2-0.4,1.8-0.6c0.6-0.2,1.2-0.4,1.7-0.5
			c0-0.2,0-0.4,0.2-0.4c0.9-0.2,1.7-0.7,2.4-1.4c0.7-0.7,1.5-1.4,2.2-2.1c0.1-0.4,0.2-0.7,0.3-1c0.1-0.3,0.2-0.6,0.1-1.1
			c-0.2-0.3-0.3-0.5-0.3-0.6c0-0.1-0.1-0.4-0.2-0.7c-0.7-0.9-1.4-2-2-3.1c-0.6-1.1-1.2-2.2-1.9-3.1c0,0.1-0.1,0.3-0.2,0.4
			c-0.1,0.2-0.3,0.2-0.5,0c-0.1,0.6-0.3,0.8-0.6,0.8c-0.3,0-0.7-0.1-1-0.3c-0.6,0.9-1.3,1.8-1.9,2.6c-0.6,0.9-1.2,1.8-1.6,2.9
			c-0.1,0.1-0.2,0.1-0.2,0.1C187.4,52.4,187.4,52.4,187.2,52.6z"/>
	</g>
</g>
</svg>
