<?xml version="1.0" encoding="utf-8"?>
<!-- Generator: Adobe Illustrator 22.1.0, SVG Export Plug-In . SVG Version: 6.00 Build 0)  -->
<svg version="1.1" id="Layer_1" xmlns="http://www.w3.org/2000/svg" xmlns:xlink="http://www.w3.org/1999/xlink" x="0px" y="0px"
	 viewBox="0 0 890 384" style="enable-background:new 0 0 890 384;" xml:space="preserve">
<style type="text/css">
	.st0{fill:#E8EDDF;}
	.st1{fill:#CFDBD5;}
	.st2{fill:#B90504;}
</style>
<g>
	<g>
		<path class="st0" d="M113.8,138l2.2-1.7l0.2-3.6c2.9-7,5.8-13.7,8.8-20.1c3-6.4,6.2-13,9.5-19.7c1-2.2,2.1-4.3,3.2-6.5
			c1.1-2.2,2.1-4.4,3.2-6.7c-0.1-0.5-0.2-0.9-0.2-1.5s0.1-1.1,0.3-1.8c1.6-2.3,2.9-4.3,3.9-6.2c1-1.8,1.9-3.7,2.8-5.7
			c1-2.3,2.1-4.6,3.3-6.9c1.2-2.3,2.7-4.5,4.5-6.7l1.2-1.7l1.9,0.2c0.5-0.2,0.9-0.4,1.5-0.6s1.2-0.3,2-0.3l3.1,0.5
			c3.8-1.7,7.1-4.2,10-7.5s5.9-7.2,8.8-11.8l2.1-2.9l2.7,1.7c0.6,0.3,1.5,0.7,2.7,1c1.3,0.3,2.6,0.7,3.9,1.2c2.4,0.6,4.7,1.2,7,2
			c2.3,0.7,4.1,1.7,5.3,3l0.9,1.5c0.2,1.3,0.4,2.4,0.6,3.4c0.2,1,0.4,2.1,0.6,3.1c0.5,2.4,0.9,4.8,1.2,7.1c0.3,2.3,0.6,4.9,0.7,7.8
			c0.6,2.3,1.1,4.6,1.6,6.9c0.5,2.3,1,4.7,1.5,6.9c0.6,3.3,1.2,6.5,1.9,9.5c0.7,3,1.6,5.9,2.7,8.7c1.1,0,1.8,0.1,2.1,0.2
			c1.4-0.6,3-0.9,4.8-1l2.2-0.2l0.7,2.1c0.2,0.3,0.5,0.7,0.9,1c0.3,0.3,0.7,0.7,1.2,1c1.8,0.1,3.2,0.5,4,1.1
			c0.9,0.6,1.6,1.2,2.1,1.8c0.2,0.2,0.5,0.5,0.9,0.8c0.3,0.3,0.6,0.5,0.9,0.6l3.1,1.2l-1.7,3.3c-1.3,2.4-3.2,4.7-5.7,7
			c-2.6,2.3-5.5,4.2-8.7,5.7c0.2,0.8,0.4,1.5,0.4,2.2c0.1,0.7,0.2,1.5,0.4,2.4c0.5,2.3,0.8,4.7,1.1,7.1c0.3,2.5,0.3,5-0.1,7.6
			c-1.1,3-2.5,5.6-4,8c-1.5,2.3-3.4,4.5-5.5,6.3c-2.1,1.9-4.5,3.4-7.1,4.6c-2.6,1.2-5.4,1.9-8.2,2c-1.6-0.3-2.8-0.7-3.5-1.2
			c-0.7-0.5-1.4-0.9-2-1.4c-0.9-0.7-1.7-1.1-2.2-1.4l-2.2-1l0.7-2.6c0.3-0.9,0.3-1.7-0.1-2.4c-0.4-0.7-1.2-1.6-2.5-2.7
			c-0.5-0.3-0.9-0.7-1.2-1.1c-0.3-0.4-0.7-0.8-1.2-1.3l-3.4-3.9l5.7-1.5c3.4-0.9,5.7-2.1,6.9-3.5c1.1-1.4,1.6-4,1.4-7.6
			c-2.9-0.6-5.2-0.7-7-0.3c-1.8,0.4-3.7,0.8-5.5,1.3c-2.6,0.7-5.2,1.3-7.7,1.8c-2.5,0.5-5.3,0.8-8.2,0.8c-1.9,0-4-0.2-6.2-0.5
			L163,127l-0.5-1.9c0-0.2-0.1-0.5-0.4-0.8c-0.3-0.3-0.5-0.5-0.8-0.8c-0.6-0.7-1.3-1.6-2.1-2.7c-0.8-1.1-1-2.6-0.5-4.3
			c-0.8-1.3-1.3-2.6-1.4-3.9c-0.5,0.9-0.8,1.8-1.1,2.7c-0.3,0.9-0.5,1.7-0.8,2.5l-0.7,2.2l-2.2,0.3c-0.2,0.2-0.4,0.6-0.6,1
			c-0.2,0.5-0.2,0.8-0.1,1l0.7,1.9l-1.7,1.5c-0.2,0.3-0.5,0.6-0.9,0.9c-0.3,0.2-0.6,0.5-0.9,0.7c-0.2,1.3-0.5,2.5-0.9,3.6
			c-0.4,1.1-0.8,2.3-1.3,3.4c-0.6,1.8-1.1,3.6-1.6,5.3c-0.5,1.7-0.8,3.4-0.8,5.1l-0.7,2.2c-0.6,0.9-1.3,1.6-2.1,2.1
			c-0.9,0.5-1.7,0.9-2.5,1.2c-1.1,0.5-1.9,0.9-2.4,1.4l-0.5,2.2l-2.6,0.3c-1.5,0.3-2.5,0.6-3.2,0.7c-0.6,0.1-1.3,0.2-2.1,0.2
			l-2.2-0.2c-1.4-1.4-2.5-2.4-3.3-3.2c-0.9-0.7-1.9-1.4-3-2l-1-1.4c-0.5-0.9-0.7-1.7-0.9-2.5c-0.1-0.7-0.3-1.5-0.5-2.3
			c-0.2-1.5-0.6-2.5-1-3.1L113.8,138z M168.5,93.3c-1.6,2.3-3.1,4.7-4.6,7.2c0.8-0.1,1.6-0.2,2.3-0.2c0.7,0,1.5-0.1,2.3-0.2
			c4-0.2,7.7-0.5,11.2-0.9c3.4-0.3,7.1-0.9,11.2-1.7c-0.9-4.2-1.9-8.5-3-13c-1.1-4.4-2.3-8.8-3.5-13.3l-0.9,1.7
			c-2.9,3.1-5.6,6.4-8.2,10c-2.6,3.5-4.8,6.9-6.5,10.1L168.5,93.3z"/>
		<path class="st0" d="M269.2,136.4c-1.3,4.6-2.4,8-3.3,10.4c-1,2.3-2.4,4.8-4.4,7.3c-1.5-0.2-2.5-0.1-3.1,0.5
			c-0.6,0.6-1.2,1.1-1.9,1.5c-1,0.2-1.8,0.2-2.2,0c-0.5-0.2-0.9-0.5-1.2-0.8c-0.3-0.3-0.8-0.6-1.3-0.9s-1.3-0.4-2.3-0.4
			c-0.2-0.9-0.5-1.8-0.8-2.6c-0.3-0.8-1.1-1.1-2.3-0.9c0.2-0.9,0.3-1.7,0.2-2.3c-0.1-0.6-0.3-1.2-0.4-1.7s-0.3-1-0.4-1.5
			c-0.1-0.5-0.1-1.2,0.2-2c-0.6,0-1-0.4-1.4-1.2c-0.3-0.8-0.7-1.6-1.2-2.4c0.3-2.1,0.7-4,1-5.8c0.3-1.8,0.8-3.5,1.3-5.1
			c0.5-1.6,0.9-3.2,1.3-4.8c0.3-1.6,0.2-3.3-0.5-5c0.5,0.3,0.8,0.3,1-0.3c0.2-0.5,0.4-1.2,0.5-2.1c0.1-0.9,0.2-1.7,0.2-2.6
			s-0.1-1.6-0.2-2.1c1.1-3,2.1-6,2.8-9.2c0.7-3.1,1.4-6.3,2.1-9.4c0.6-3.1,1.3-6.1,2-9.1c0.7-3,1.6-5.7,2.7-8.2
			c1.3-0.2,2.7-0.1,4.2,0.4s2.5,1.2,2.8,2c3-2.3,5.6-5.1,7.9-8.3c2.3-3.3,4.6-6.4,7-9.5c2.4-3.1,5.1-5.8,8-8.2s6.6-3.8,11.1-4.3
			c2.3,1.7,4.8,3.5,7.6,5.2c2.8,1.8,5.1,4.1,6.9,6.9c0.9,0.5,1.7,0.9,2.3,1.5c0.6,0.5,1.4,1.1,2.3,1.6v2.1c1.4,1.3,2.5,2.7,3.3,4.4
			c0.9,1.7,1.6,3.4,2.3,5.3c0.7,1.9,1.4,3.8,2.1,5.7s1.5,3.7,2.4,5.4c-0.2,0.6-0.3,1.1-0.3,1.5c0,0.4,0.1,0.8,0.3,1.3
			c0.2,0.5,0.3,0.9,0.4,1.4c0.1,0.5,0.1,1.1,0,1.9c-0.3,5-2,9.1-4.9,12.2c-2.9,3.1-6.4,5.6-10.6,7.6c-4.1,2-8.5,3.7-13.2,5.1
			c-4.7,1.4-8.9,2.9-12.7,4.5c0,0.5,0.2,0.7,0.6,0.7c0.4,0,0.5,0.3,0.4,0.9c2.7,1.7,4.9,3.1,6.5,4.1c1.6,1,3.1,1.9,4.5,2.6
			c1.4,0.7,3,1.3,4.6,1.8c1.7,0.5,4,1.1,6.9,1.8c3,0.7,5.3,1.2,6.9,1.6c1.7,0.4,3.2,0.7,4.5,1c1.4,0.3,2.8,0.5,4.2,0.7
			c1.4,0.2,3.5,0.4,6.1,0.6c1,1,1.9,2.3,2.7,3.7c0.7,1.4,1.2,2.9,1.5,4.3c0.2,1.4,0.3,2.8,0.2,4.1c-0.1,1.3-0.5,2.4-1.2,3.2
			c0.1,0.3,0.4,0.5,0.8,0.4c0.4-0.1,0.8,0,1.3,0.1c-0.7,0.5-1.3,1-1.7,1.7c-0.5,0.7-0.9,1.4-1.4,2.1c-0.5,0.7-1,1.3-1.5,1.8
			c-0.6,0.5-1.4,0.8-2.4,0.9c-3.5,1.4-8,1.5-13.4,0.3c-5.4-1.2-12.2-3.4-20.4-6.6c-4.1-1.6-7.5-3-10-4.2c-2.6-1.2-4.8-2.4-6.7-3.6
			c-1.9-1.2-3.6-2.5-5.1-3.9C273.2,140,271.4,138.4,269.2,136.4z M293.7,77.6c-1.3,1.8-2.7,3.5-4.2,5c-1.5,1.5-3,3-4.5,4.5
			c-1.4,1.5-2.7,3.3-3.9,5.1c-1.1,1.9-1.9,4.1-2.4,6.6c4-0.5,8.2-1.6,12.5-3.3c4.3-1.8,8.5-3.5,12.4-5.1c-0.5-3.5-1.7-6.4-3.7-8.6
			C298,79.7,295.9,78.3,293.7,77.6z"/>
		<path class="st0" d="M455.3,151.2c-1.1,0.6-2.2,1.1-3.2,1.5c-1,0.5-2.1,0.7-3.3,0.7c-4.5-3.3-6.8-9.1-6.9-17.3
			c-0.2-8.2,1.6-18.7,5.2-31.4c0.6-0.3,0.9-1,0.9-2.1l-1.5-1.7c-0.5,0-0.9,0.1-1.3,0.2c-0.4,0.1-0.7,0.5-0.9,1.2
			c-3,2.2-6.2,4.4-9.8,6.8c-3.5,2.3-7.2,4.5-11.1,6.5c-3.8,2-7.7,3.6-11.7,4.9c-3.9,1.3-7.8,1.9-11.6,1.9c-9.6,0-16.8-4.9-21.6-14.6
			l-1.4-2.6l-1.4,2.2c-0.3,0.5-0.9,1.4-1.5,2.8c-0.7,1.4-1.4,3.1-2.1,4.9c-0.7,1.8-1.3,3.7-1.8,5.6s-0.7,3.5-0.6,4.9
			c-1,1-2.1,2.2-3.3,3.6c-1.1,1.4-2,2.9-2.6,4.6c-0.2,0.9-0.1,1.8,0.3,2.6c-0.2,1-0.7,1.8-1.5,2.4c-0.5,0.6-0.9,1.1-1.5,1.6
			c-0.5,0.5-0.9,1.1-1.3,1.6c-0.2,0.6-0.4,1.1-0.4,1.7c-0.1,0.6-0.1,1.1-0.3,1.7c0,0.8-0.1,1.5-0.3,2.2c-1.9,4-3.5,6.6-4.6,7.8
			c-1.1,1.2-2.7,1.8-4.6,1.8c-0.9,0-2.4-0.2-4.5-0.5c-1.5-1.6-2.8-3.8-4-6.6c-1.2-2.8-2.1-5.8-2.7-9c-0.6-3.2-0.9-6.4-0.9-9.7
			c0.1-3.3,0.6-6.1,1.6-8.5c0-0.1,0.5-1.3,1.4-3.4c0.9-2.2,2.1-5,3.5-8.4c1.4-3.4,3.1-7.2,4.9-11.4c1.8-4.2,3.7-8.2,5.5-12.2
			c1.8-3.9,3.6-7.6,5.2-10.9c1.7-3.3,3.1-5.8,4.2-7.5c0.9-1.4,1.7-2.7,2.5-3.9c0.7-1.2,1.5-2.4,2.1-3.5c2.1-3.5,4-6.5,5.9-8.8
			c1.9-2.3,4.7-4.2,8.3-5.6c2.5,1,4.3,2.2,5.5,3.6l0.3,1.9c0.5,1.1,1.1,1.7,2.1,1.7c1.3,0.3,2.3,0.7,3.2,0.9
			c0.9,0.3,1.8,0.5,2.8,0.8c0.8,0.9,1.5,2,2.2,3.3c0.9,1.4,1.8,2.7,2.7,4c0.9,1.3,1.5,2.6,2.1,3.9c0.5,1.3,0.8,2.7,0.9,4
			c0.1,1.4-0.2,2.8-0.8,4.3l0.2,1.7c0.6,1,0.7,2.5,0.3,4.3c-0.1,0.8-0.2,1.6-0.2,2.5s0.1,1.8,0.3,2.8c2.1,1.6,3.9,2.4,5.5,2.4
			c1.8,0,3.5-0.4,5.1-1.3c1.5-0.9,3-1.7,4.4-2.7c0.9-0.7,1.8-1.3,2.7-1.8c0.9-0.5,1.8-0.8,2.7-0.9c2.1-1.9,3.9-3.7,5.6-5.1
			c1.7-1.5,3.4-3,5.2-4.5c3.4-2.7,6.7-5.7,10-8.9c3.2-3.2,5.8-7.2,7.7-12c1.1-0.7,2.3-1,3.6-1c1.3,0,2.6,0.3,3.9,0.9
			c1.4,0.6,2.7,1.1,3.9,1.7c0.3,0.2,0.7,0.4,0.9,0.5c0.3,0.1,0.5,0.2,0.8,0.3c0,1.1,0.5,2.1,1.4,2.9c0.5,0.3,0.7,0.6,0.9,0.7
			c0.1,0.1,0.3,0.2,0.5,0.3c1.7,0.9,2.8,1.8,3.3,2.7c0.8,2.6,2.2,4.6,4.3,6c-0.2,1.1-0.2,2.2,0.1,3.2c0.3,1,0.7,2,1.1,3
			c0.1,0.3,0.2,0.7,0.3,1c0.1,0.3,0.3,0.7,0.5,1.2l-3.3-0.3l0.5,3.3c0.2,1.6,0.1,3.4-0.4,5.3c-0.5,1.9-1.1,3.5-1.8,4.6
			c0.1,3,0.2,5.3,0.3,6.9c0.1,1.7,0,3.2-0.3,4.6c-0.2,1.4-0.5,2.8-0.9,4c-0.4,1.3-0.9,2.6-1.6,4.1c0.5,7.3-0.4,14-2.5,20
			c-2.1,6-4.3,11.6-6.6,16.9c-0.2,0.6-0.5,1.1-0.8,1.7c-0.3,0.6-0.5,1.1-0.8,1.7c-1,0.3-1.9,0.7-2.7,1.1
			C457.1,150.3,456.3,150.7,455.3,151.2z"/>
		<path class="st0" d="M570.5,139.8c-0.7,1.9-1.7,3.9-3,5.9c-1.3,2-2.9,3.8-4.6,5.3c-1.8,1.5-3.7,2.8-5.9,3.9
			c-2.2,1-4.5,1.6-6.9,1.7c-1.5-0.3-2.5-0.7-3-1.1c-0.5-0.4-1.1-0.8-1.6-1.1c-0.3-0.2-0.7-0.4-0.9-0.6c-0.3-0.2-0.5-0.3-0.8-0.4
			l-2.1-0.9l0.7-2.2c0.2-0.9,0.2-1.6-0.2-2.1s-1-1.2-2.1-2.1c-0.3-0.3-0.7-0.7-1-1c-0.3-0.3-0.6-0.7-0.9-1l-2.9-3.3l4.6-1.2
			c2.9-0.8,4.8-1.8,5.7-3.1c1-1.3,1.3-3.4,1.1-6.3c-2.3-0.5-4.2-0.5-5.7-0.2c-1.5,0.3-3.1,0.7-4.7,1.2c-2.1,0.6-4.1,1.1-6.3,1.5
			c-2.1,0.4-4.4,0.6-6.9,0.6c-0.9,0-1.8,0-2.6-0.1c-0.8-0.1-1.7-0.1-2.6-0.3l-1.7-0.3c-0.2-1.3-0.5-2-0.7-2.1
			c-0.2-0.2-0.5-0.4-0.7-0.6c-0.6-0.6-1.2-1.3-1.8-2.3c-0.6-1-0.8-2.2-0.4-3.7c-0.6-1-0.9-2.1-1-3.1c-0.7,1.4-1.2,2.8-1.5,4.3
			l-0.7,1.7l-1.7,0.3c-0.2,0.1-0.4,0.4-0.5,0.8c-0.1,0.4-0.2,0.7-0.2,0.9l-0.9,2.9c-0.2,0.2-0.5,0.4-0.7,0.6
			c-0.2,0.2-0.5,0.4-0.7,0.6c-0.2,1-0.5,2.1-0.9,3.1s-0.7,2-1,2.9c-0.6,1.5-1.1,2.9-1.5,4.4c-0.4,1.4-0.5,2.8-0.4,4.2l-0.7,1.9
			c-0.6,0.7-1.2,1.2-1.9,1.6c-0.7,0.4-1.4,0.8-2.1,1.1c-0.2,0.2-0.5,0.4-0.9,0.6c-0.4,0.2-0.7,0.3-0.9,0.4l-0.5,1.9l-2.1,0.3
			c-1.3,0.2-2.1,0.4-2.7,0.5c-0.5,0.1-1.1,0.2-1.8,0.2l-1.7-0.2c-1.3-1-2.2-1.9-2.9-2.5c-0.7-0.6-1.5-1.2-2.4-1.8
			c-1-1.4-1.6-2.4-1.7-3.1c-0.1-0.7-0.2-1.3-0.3-1.9c-0.2-0.7-0.4-1.3-0.4-1.7c-0.1-0.5-0.2-0.8-0.4-1l-2.2-2.1l1.9-1.5l0.2-2.9
			c2.3-5.8,4.7-11.4,7.3-16.8c2.6-5.4,5.2-10.9,8-16.5c0.9-1.8,1.8-3.7,2.7-5.5c0.9-1.8,1.7-3.7,2.7-5.5c-0.1-0.3-0.2-0.7-0.2-1.2
			c0-0.5,0.1-1,0.3-1.5c1.3-1.9,2.3-3.7,3.1-5.2c0.8-1.5,1.6-3.1,2.4-4.7c0.9-1.9,1.9-3.8,2.8-5.7c1-1.8,2.2-3.7,3.7-5.7l2.7-1.2
			c0.3-0.1,0.7-0.3,1.2-0.4c0.5-0.2,1-0.3,1.5-0.3l2.6,0.3c3.2-1.5,6-3.6,8.4-6.3c2.4-2.7,4.9-5.9,7.4-9.7l1.7-2.4l2.2,1.4
			c0.6,0.3,1.4,0.7,2.4,0.9c1,0.3,2.1,0.6,3.3,0.9c2.1,0.5,4,1,5.8,1.5c1.8,0.6,3.3,1.4,4.5,2.6c0.7,1.8,1.1,3.2,1.2,4.1
			c0.1,0.9,0.3,1.8,0.5,2.7c0.3,1.9,0.7,3.9,0.9,5.8c0.3,1.9,0.5,4.1,0.6,6.5c0.6,1.9,1.1,3.9,1.5,5.7c0.4,1.9,0.8,3.8,1.1,5.7
			c0.6,2.7,1.1,5.4,1.7,8c0.6,2.6,1.3,5,2.2,7.3c0.9,0,1.5,0.1,1.7,0.2c0.6-0.2,1.2-0.4,1.8-0.5c0.6-0.1,1.3-0.2,2.1-0.3l1.9-0.2
			l0.7,1.7c0.1,0.6,0.7,1.1,1.7,1.7c1.5,0.1,2.6,0.4,3.3,0.9c0.7,0.5,1.3,1.1,1.9,1.6c0.5,0.5,0.9,0.8,1.4,1l2.6,1l-1.4,2.6
			c-1.1,2.1-2.8,4-4.9,5.9c-2.1,1.9-4.5,3.5-7.1,4.7c0.1,0.7,0.2,1.3,0.3,2c0.1,0.6,0.2,1.3,0.4,2c0.3,1.9,0.6,3.9,0.9,6
			c0.2,2.1,0.2,4.2,0,6.3L570.5,139.8z M520.9,110.2c3.4-0.2,6.5-0.5,9.4-0.8c2.8-0.3,5.9-0.8,9.4-1.5c-0.8-3.4-1.7-7-2.6-10.7
			c-0.9-3.7-1.9-7.4-2.9-11.1l-1,1.7c-2.3,2.4-4.5,5.1-6.6,8.1c-2.1,3-3.9,5.8-5.4,8.4c-0.7,1-1.4,2.1-2.1,3.1s-1.3,2.1-1.9,3.1
			c0.7-0.1,1.3-0.2,2-0.2C519.7,110.3,520.3,110.3,520.9,110.2z"/>
		<path class="st0" d="M617,123c-1,0.2-1.8,0.8-2.2,1.8c-0.5,1-0.9,2-1.3,3c-0.4,1-0.8,2-1.2,2.8c-0.4,0.9-1,1.3-1.8,1.3
			c-0.1,0.9-0.4,1.7-0.9,2.4c-0.5,0.7-1,1.4-1.5,2.1c-0.5,0.7-0.8,1.5-1,2.4c-0.2,0.9-0.1,1.9,0.3,3c-0.9,0.7-1.5,1.7-1.7,2.9
			c-0.2,1.3-0.5,2.5-0.8,3.6c-0.3,1.1-0.8,2.1-1.5,2.9c-0.7,0.8-1.9,1.1-3.8,1c-0.3,0.5-0.4,0.7-0.2,0.9c0.2,0.1,0.4,0.5,0.5,1.2
			c-1.3-0.2-2.2-0.1-2.8,0.3c-0.6,0.4-1.4,0.7-2.3,0.8c-2.2-0.7-4-1.9-5.4-3.6c-1.4-1.7-2.7-3.6-3.8-5.7c-1.1-2.1-2.1-4.3-2.9-6.4
			c-0.9-2.2-1.7-4.1-2.5-5.7c0.3-1.3,0.4-2.5,0.2-3.7c-0.2-1.2-0.6-2.2-1.2-3c5.6-11.9,11.7-24.6,18.4-38.1
			c6.6-13.5,12.9-26.8,18.9-40c2.6,1,5.2,2.2,7.8,3.5c2.6,1.3,4.9,2.8,7,4.5c2.1,1.7,3.9,3.7,5.4,5.9c1.5,2.2,2.5,4.7,2.9,7.5
			c-0.2,0.7-0.5,0.9-0.8,0.8c-0.3-0.2-0.5-0.1-0.8,0.3c0.5,0.6,0.7,1,0.8,1.2c0.1,0.2,0.1,0.5,0,0.7c-0.1,0.2-0.1,0.5-0.1,0.9
			c0,0.4,0.2,0.9,0.5,1.6c-0.5-0.1-0.8-0.1-0.9,0.2c-0.2,0.2-0.5,0.2-1.1,0c0.5,1.3,0.6,2.3,0.4,3.1c-0.2,0.8-0.4,1.5-0.8,2.1
			c-0.3,0.6-0.6,1.3-0.9,2.1c-0.2,0.7-0.2,1.7,0.2,2.8c-0.3,0-0.6,0.1-0.8,0.3c-0.2,0.2-0.3,0.3-0.4,0.5c-0.1,0.2-0.3,0.3-0.4,0.5
			c-0.2,0.2-0.4,0.2-0.8,0.1c0.3,2.5,0.5,5,0.3,7.5c-0.1,2.5-0.2,5.1-0.3,7.6c-0.1,2.6,0,5.3,0.1,8.1c0.1,2.8,0.5,5.7,1.2,8.7
			c4.1-2.4,7.4-5.5,9.9-9.3c2.5-3.8,4.5-8,6-12.7c1.5-4.7,2.7-9.7,3.5-15.1c0.8-5.4,1.7-10.9,2.6-16.5c1-1,1.8-2.3,2.4-3.8
			c0.6-1.5,1.1-3.1,1.5-4.7c0.5-1.7,0.9-3.3,1.4-5c0.5-1.7,1-3.2,1.7-4.5c1.7,0.2,3.2,0.8,4.4,1.6c1.2,0.9,2.3,1.8,3.3,2.7
			c1,1,2.1,1.9,3.3,2.7c1.1,0.9,2.6,1.4,4.3,1.6c1.4,1.9,2.6,3.8,3.8,5.7c1.1,1.8,1.9,3.8,2.2,5.8c-0.6,0.9-1,1.9-1.3,3.1
			c-0.3,1.1-0.6,2.3-0.9,3.4c-0.3,1.1-0.8,2.2-1.4,3.2c-0.6,1-1.4,1.8-2.4,2.5c-0.3,3-0.8,5.7-1.3,8.1c-0.5,2.5-1,4.9-1.5,7.3
			s-0.9,4.9-1.3,7.5c-0.3,2.6-0.5,5.4-0.3,8.5c-0.9,2.6-1.9,5.4-2.9,8.4c-1,3-1.8,5.7-2.4,8.1c-1.8,1.5-3.3,3.3-4.3,5.3
			s-2.1,4.1-3.3,6.2c-0.5,0.5-0.7,0.6-0.9,0.3c-0.1-0.2-0.5-0.4-1.2-0.5c0.1,0.5,0.1,0.8,0,1c-0.1,0.2-0.3,0.4-0.4,0.6
			c-0.2,0.2-0.3,0.4-0.3,0.8c-0.1,0.3,0,0.8,0.3,1.4c-1.6,0.7-3,1.7-4.3,2.9c-1.3,1.3-2.6,2.4-4,3.4c-1.4,1-3.1,1.7-5.1,2.1
			c-2,0.3-4.6-0.1-7.8-1.2c-4.7-3.4-8.8-7.4-12.4-11.8C622.2,134.5,619.2,129.2,617,123z"/>
		<path class="st0" d="M765.5,107.9c-0.1,0.6-0.2,1.1-0.3,1.5c-0.1,0.4-0.2,0.8-0.3,1.1c-0.1,0.3-0.2,0.8-0.2,1.3s0,1.2,0,2
			c-3.4,6.1-7.8,11.2-13,15.3c-5.2,4.1-10.9,7.7-17.2,10.9c-6.2,3.1-12.7,6-19.5,8.6c-6.8,2.6-13.3,5.3-19.7,8.3
			c-2.7-0.7-4.8-1.8-6.3-3.4c-1.4-1.6-2.5-3.5-3.3-5.6c-0.7-2.1-1.3-4.5-1.5-7c-0.3-2.6-0.5-5.2-0.8-8c0.3-1.3,0.8-2.3,1.5-3.2
			c0.6-0.9,0.9-2.1,0.9-3.7c0.9-3,1.8-5.9,2.7-8.7c0.9-2.9,1.5-5.8,1.7-8.8c0.3-0.9,1-1.5,1.9-1.9c0.6-5.5,0.6-11.1,0.1-16.7
			s-1.5-11-2.8-15.9c0.1-1.1,0.3-2,0.4-2.5c0.2-0.5,0.1-0.9-0.1-1.1c-0.1-0.9,0.2-1.4,0.9-1.4c0.7,0,1.5,0,2.3,0
			c0-1.7-0.3-3.4-0.9-5.1c-0.6-1.7-1.2-3.7-1.8-5.8c0.8-1.7,1.3-3.4,1.5-5.1c0.2-1.7,0.7-3.1,1.5-4.4c6.2,1.9,12.1,4.3,17.8,7
			c5.7,2.7,11.2,4.7,16.7,6c4.1,3,8.3,5.9,12.7,8.8c4.3,2.9,8.3,6.1,11.8,9.6c3.5,3.5,6.5,7.5,8.9,11.9
			C763.8,96.4,765.2,101.8,765.5,107.9z M724.9,117.4c2.4-0.9,4.8-1.9,7.1-2.9c2.3-1,4.5-2.2,6.5-3.5c2-1.3,3.8-2.8,5.4-4.5
			c1.6-1.7,2.9-3.8,3.9-6.2c-0.7-1.4-1.6-2.6-2.7-3.7c-1.1-1.1-2.3-2.1-3.4-3.1c-1.1-1-2.3-2-3.3-3c-1.1-1-2-2.3-2.7-3.8
			c-1.5-0.2-2.8-0.7-3.9-1.3c-1.1-0.6-2.3-1.3-3.3-1.9c-1.1-0.6-2.2-1.2-3.4-1.8c-1.2-0.6-2.6-0.9-4.2-1c-2.5-1.3-4.8-2.2-6.8-2.7
			c-2-0.6-3.5-1.3-4.5-2.2c-0.8,0-1.4,0.2-1.9,0.5c1.1,4.3,2,8.4,2.6,12.3c0.6,3.8,0.9,7.7,0.9,11.5c0.1,3.8-0.1,7.8-0.6,11.8
			c-0.5,4-1.1,8.4-1.9,13c1.1-0.1,2.2-0.4,3.2-0.8c1-0.4,1.9-0.8,2.9-1.3c1-0.5,2-0.9,3.1-1.3c1.1-0.4,2.4-0.7,3.9-0.8
			c0.3-0.7,0.8-1.3,1.5-1.7C723.7,118.5,724.3,117.9,724.9,117.4z"/>
		<path class="st0" d="M868.3,102.8c-0.1,1.4,0,2.7,0.3,3.9c0.3,1.3,0.8,2.5,1.3,3.7c0.5,1.2,1,2.4,1.5,3.7c0.5,1.3,0.8,2.5,1,3.8
			c0.2,1.6,0.2,3.3,0,5.2c-0.2,1.9-0.6,3.7-1.2,5.5c-0.6,1.8-1.3,3.4-2.2,4.8c-0.9,1.4-2,2.5-3.3,3.2c-1.6,2.1-3.5,3.7-5.8,4.8
			c-2.3,1.1-4.4,2.5-6.3,4.1c-1.3,0.8-2.7,1.4-4.2,1.7s-3.1,0.7-4.7,1c-1.3,0.7-2.7,1.4-4.5,2.1c-1.7,0.7-3.5,1.4-5.3,2.1
			c-1.8,0.6-3.7,1.1-5.5,1.4c-1.8,0.3-3.4,0.4-4.8,0.3c-3.4,1.3-6.8,2.1-10,2.5c-3.3,0.4-7.1,0.1-11.4-0.8
			c-4.1,0.6-7.9,0.4-11.4-0.5c-3.5-0.9-6.6-2.4-9.3-4.4c-2.7-2-5-4.4-7-7.2c-2-2.8-3.6-5.7-4.9-8.8c-0.9-6.5-0.7-12.4,0.7-17.8
			c1.4-5.3,3.3-10.2,5.9-14.8c2.6-4.5,5.5-8.7,8.8-12.5c3.3-3.8,6.5-7.6,9.6-11.2c0.7,0.2,1.2,0.2,1.6-0.1c0.4-0.3,0.8-0.7,1.1-1.2
			c0.3-0.5,0.7-1,1.1-1.5c0.4-0.5,0.9-0.7,1.5-0.9c0.8-1.7,2-3,3.5-3.9s2.8-2.1,3.7-3.7c1-0.2,1.9-0.6,2.6-1c0.7-0.5,1.3-1,2-1.5
			c0.6-0.6,1.3-1.1,2-1.6c0.7-0.5,1.5-0.9,2.4-1.1v-1.9c2.1-0.9,3.6-2,4.5-3.2c1-1.2,2.1-2.7,3.5-4.4c1-0.1,1.9-0.2,2.5-0.2
			c0.6,0,1.6-0.1,2.8-0.3c0.9-1.6,1.7-2.8,2.5-3.6c0.7-0.8,1.9-1.7,3.3-2.6c1.4,0.7,2.9,1.1,4.5,1.4c1.7,0.2,3.1,1,4.4,2.2
			c0.1,1.1,0.5,2,1,2.7c0.6,0.6,1.2,1.2,1.9,1.7c0.7,0.5,1.3,1.1,2,1.6c0.6,0.6,1.1,1.4,1.3,2.4c0.5,0.1,0.8,0.1,0.9-0.2
			c0.2-0.2,0.5-0.3,0.9-0.2c0.3,1.6,0.7,2.7,1.2,3.2c0.5,0.5,0.9,1.5,1.4,3c-0.6,1.1-1,2.3-1.3,3.5c-0.3,1.2-1,2.1-2.1,2.7
			c-0.1,0.8,0.1,1.2,0.7,1.3c0.6,0.1,0.9,0.4,1,0.9c0.1,1-0.1,1.8-0.5,2.2c2.7,4.5,5.2,9.2,7.4,14.2
			C863.1,93.6,865.6,98.3,868.3,102.8z M846.9,119.1c0.5-1.3,1.1-2.3,1.8-3.1c0.7-0.8,1.2-2,1.3-3.6c-0.6-0.9-0.9-1.6-1-2.1
			c-0.1-0.5-0.2-1.3-0.2-2.5c-2.5-3.5-4.7-7.3-6.5-11.4c-1.8-4.1-3.9-7.9-6.2-11.4c-0.2,0.5-0.6,0.9-1.2,1.4
			c-0.6,0.5-1.2,0.3-1.9-0.3c-0.2,0.9-0.6,1.6-1.2,2c-0.6,0.4-1.2,0.6-1.9,0.5c-0.7-0.1-1.4-0.2-2.1-0.5c-0.7-0.3-1.4-0.7-2-1.1
			c-3.3,2.6-6.6,5.2-10,7.7c-3.3,2.5-6.3,5.4-8.9,8.8c-0.5,0.2-0.7,0.3-0.9,0.3c-0.1-0.1-0.5,0-1,0.3c-0.9,2.2-2,4.1-3.3,5.9
			c-1.3,1.8-2.6,3.6-3.9,5.4c-1.3,1.8-2.3,3.8-3.3,5.8c-0.9,2.1-1.4,4.5-1.5,7.2c1.9,1.6,4.2,2.6,6.9,2.9c2.6,0.3,5.3,0.4,8.1,0.2
			c2.8-0.2,5.5-0.6,8.2-1.1c2.7-0.5,5.2-0.8,7.5-0.8c4.8-1.1,8.9-2.7,12.4-4.5S843.1,121,846.9,119.1z"/>
	</g>
	<g>
		<path class="st1" d="M17.7,184.9c0.2-1.1,0.4-1.9,0.4-2.6c0.1-0.7-0.2-1.4-0.7-2.2c0.3-1.1,0.5-2,0.7-2.7c0.2-0.6,0.2-1.5,0.1-2.7
			c0.6-1.9,1.6-3.4,2.9-4.7c1.3-1.3,2.8-2.4,4.3-3.3c1.6-0.9,3.2-1.6,4.9-2.2c1.7-0.6,3.3-1.1,4.8-1.6c0-0.3-0.1-0.4-0.4-0.4
			c-0.3,0-0.4-0.2-0.2-0.5c3.9-0.7,7.7-1.7,11.6-3.1c3.9-1.4,7.9-2.6,11.9-3.6c4.1-1.1,8.2-1.7,12.5-2c4.3-0.2,8.8,0.3,13.5,1.7
			c0.3,0.9,0.7,1.7,1.2,2.5c0.5,0.8,1,1.6,1.6,2.3c0.5,0.7,1,1.5,1.4,2.2c0.4,0.7,0.7,1.5,0.7,2.2c0.9,0.8,1.6,1.6,2.1,2.5
			c0.5,0.9,0.6,2.1,0.3,3.6c-0.8,0.6-1.6,1.1-2.5,1.7c-0.9,0.6-1.8,1.1-2.7,1.6c-3.2-0.8-6.4-1.1-9.6-0.9c-3.2,0.2-6.1,0.5-8.7,0.7
			c-0.8-0.9-1.7-1.3-2.8-1.2c-1.1,0-2.2,0.2-3.4,0.5c-1.2,0.3-2.3,0.6-3.5,1c-1.1,0.3-2.2,0.4-3.2,0.3c-0.8,0.7-1.8,1.2-3.1,1.4
			c-1.3,0.3-2.6,0.4-4.1,0.6c-0.1,0.4,0,0.6,0.2,0.7c0.2,0.1,0.2,0.4,0.1,0.9c0.5,0.6,1.2,1.1,2,1.3c0.9,0.3,1.7,0.5,2.6,0.7
			c0.9,0.2,1.7,0.5,2.4,0.9c0.7,0.4,1.2,1,1.4,1.9c1.3,0.1,2.4,0.4,3.3,1c0.9,0.6,1.7,1.3,2.4,2.2c0.6,0.9,1.1,1.8,1.4,2.7
			c0.3,1,0.4,1.8,0.3,2.6c0.3,0.7,0.6,1,0.9,0.9c0.3-0.1,0.7,0,1.1,0.5c0.3,1.1,0.9,2.2,2,3.4c1,1.2,1.8,2.4,2.4,3.8
			c0.1,2.1,0.3,4.1,0.4,5.8c0.1,1.7-0.2,3.4-0.9,5c-1.2,3.1-3,6-5.2,8.5c-2.3,2.5-4.9,4.7-7.8,6.6c-2.9,1.9-5.9,3.5-9.2,4.9
			c-3.2,1.4-6.4,2.6-9.5,3.5c-0.3-0.1-0.6-0.1-1,0c-0.4,0.1-0.5-0.1-0.3-0.6c-0.6,0.6-1.4,0.9-2.2,1.1c-0.8,0.1-1.7,0.2-2.7,0.2
			c-1,0-1.9-0.1-2.9-0.2c-1-0.1-1.9,0-2.8,0.1c-0.6-0.6-1.1-1.1-1.6-1.7c-0.5-0.6-0.8-1.2-1.1-2c-0.4-0.1-0.5-0.3-0.5-0.7
			c0-0.4-0.1-0.6-0.5-0.6c0-0.3,0-0.5,0.1-0.6c0.1-0.1,0.1-0.3,0.2-0.4c0.3-0.2,0.4-0.4,0.4-0.5c0-0.1-0.1-0.2-0.3-0.3
			c-0.2-0.1-0.4-0.2-0.5-0.4c-0.2-0.1-0.2-0.3-0.2-0.5c0.4-0.6,0.5-1.4,0.4-2.3c-0.1-0.9-0.2-1.8-0.3-2.7c-0.1-0.9,0-1.8,0.2-2.6
			c0.2-0.8,0.8-1.5,1.8-2.1c2.9,0.3,5.7,0.1,8.3-0.4c2.6-0.6,5.1-1.4,7.4-2.4c2.3-1,4.5-2.1,6.6-3.3c2.1-1.2,4.2-2.3,6.2-3.3
			c0.2-0.7,0.6-1.3,1-1.8c0.5-0.5,0.9-1,1.4-1.4c0.5-0.5,1-1,1.4-1.5c0.4-0.5,0.7-1.2,1-2c0.1-0.3,0.1-0.5,0-0.6
			c-0.1-0.1-0.2-0.3-0.3-0.4c-0.1-0.1-0.3-0.2-0.4-0.4c-0.1-0.1-0.2-0.4-0.2-0.6c-0.2-0.1-0.4-0.1-0.6-0.2c-0.2-0.1-0.3-0.1-0.5-0.1
			c-1.9-0.9-3.8-1.7-5.9-2.4c-2.1-0.6-3.8-1.4-5.2-2.1c-0.9,0.6-1.7,0.7-2.6,0.4c-0.9-0.3-1.9-0.6-3.1-0.9c-3-0.1-5.8-0.4-8.5-0.9
			c-2.7-0.4-5.3-1.2-7.8-2.2c-0.1-0.4-0.3-0.8-0.5-1.1c-0.2-0.3-0.7-0.4-1.5-0.3c-0.5-0.7-1-1.4-1.6-2S18.2,185.7,17.7,184.9z"/>
		<path class="st1" d="M102.2,225.7c0.4,2.1,0.2,3.8-0.4,5c-0.6,1.2-1.5,2.1-2.6,2.7c-1.1,0.6-2.4,0.9-3.8,1c-1.4,0.1-2.8,0-4.1-0.2
			c-0.7-1-1.4-2.2-1.9-3.7c-0.6-1.5-1.1-3.1-1.6-4.7c-0.5-1.6-0.9-3.2-1.3-4.8c-0.4-1.6-0.7-3-1-4.2c0.4-0.9,0.6-1.8,0.7-2.9
			c0.1-1.1,0.2-2.2,0.2-3.4c0-1.1,0.1-2.3,0.1-3.5c0-1.2,0.1-2.3,0.3-3.4c0.5-3,1.2-5.9,2.2-8.6c1-2.7,1.7-5.5,2.3-8.5
			c0.1-0.6,0.1-1.2-0.2-1.8c-0.3-0.6-0.3-1.1-0.2-1.6c0.1-0.3,0.3-0.5,0.6-0.6c0.4-0.1,0.6-0.3,0.6-0.7c0.2-0.8,0.3-1.4,0.2-1.9
			c-0.1-0.5,0-1.1,0.4-1.8c0.4-0.6,0.8-1.4,1.3-2.5c0.5-1.1,0.7-2.3,0.6-3.5c0.6-0.4,1.2-0.9,1.8-1.5c0.6-0.6,1.2-1.1,1.8-1.6
			c0.6-0.5,1.3-0.9,2-1.2c0.7-0.4,1.7-0.5,2.7-0.5c0.6,0.7,0.9,1.5,1.1,2.4c0.2,0.9,0.4,1.7,0.5,2.6c0.2,0.9,0.4,1.7,0.8,2.4
			c0.4,0.7,1,1.3,1.8,1.8c0,0.6,0,1.3,0,2.1s0,1.7,0.1,2.5c0.1,0.8,0.2,1.6,0.5,2.2c0.2,0.7,0.7,1.1,1.2,1.3
			c-1.3,3.4-2.5,6.8-3.6,10.2c-1.1,3.4-2,6.7-2.7,10.1c-0.7,3.4-1.2,6.8-1.3,10.2C101.3,218.7,101.6,222.2,102.2,225.7z"/>
		<path class="st1" d="M188.7,231.3c-0.7,0.4-1.4,0.7-2,1c-0.6,0.3-1.3,0.4-2.1,0.4c-2.8-2.1-4.2-5.7-4.3-10.8
			c-0.1-5.1,1-11.7,3.3-19.6c0.4-0.2,0.5-0.6,0.5-1.3l-1-1.1c-0.3,0-0.6,0-0.8,0.1c-0.3,0.1-0.4,0.3-0.6,0.7
			c-1.9,1.4-3.9,2.8-6.1,4.2c-2.2,1.5-4.5,2.8-6.9,4.1c-2.4,1.2-4.8,2.3-7.3,3.1c-2.5,0.8-4.9,1.2-7.2,1.2c-6,0-10.5-3-13.5-9.1
			l-0.9-1.6l-0.9,1.4c-0.2,0.3-0.5,0.9-1,1.8c-0.4,0.9-0.9,1.9-1.3,3.1c-0.4,1.1-0.8,2.3-1.1,3.5c-0.3,1.2-0.4,2.2-0.4,3.1
			c-0.6,0.6-1.3,1.4-2,2.2c-0.7,0.9-1.3,1.8-1.6,2.9c-0.1,0.6-0.1,1.1,0.2,1.6c-0.1,0.6-0.5,1.1-1,1.5c-0.3,0.4-0.6,0.7-0.9,1
			c-0.3,0.3-0.6,0.7-0.8,1c-0.1,0.4-0.2,0.7-0.3,1.1c0,0.4-0.1,0.7-0.2,1.1c0,0.5-0.1,1-0.2,1.4c-1.2,2.5-2.2,4.1-2.9,4.9
			c-0.7,0.8-1.7,1.1-2.9,1.1c-0.6,0-1.5-0.1-2.8-0.3c-0.9-1-1.8-2.4-2.5-4.1c-0.7-1.7-1.3-3.6-1.7-5.6c-0.4-2-0.6-4-0.5-6
			c0-2,0.4-3.8,1-5.3c0-0.1,0.3-0.8,0.9-2.1c0.6-1.4,1.3-3.1,2.2-5.2c0.9-2.1,1.9-4.5,3.1-7.1c1.1-2.6,2.3-5.1,3.4-7.6
			c1.1-2.5,2.2-4.7,3.3-6.8c1-2.1,1.9-3.6,2.6-4.7c0.6-0.9,1.1-1.7,1.6-2.4c0.5-0.7,0.9-1.5,1.3-2.2c1.3-2.2,2.5-4.1,3.7-5.5
			c1.2-1.5,2.9-2.6,5.2-3.5c1.6,0.6,2.7,1.4,3.4,2.2l0.2,1.2c0.3,0.7,0.7,1.1,1.3,1.1c0.8,0.2,1.4,0.4,2,0.6
			c0.5,0.2,1.1,0.3,1.8,0.5c0.5,0.6,1,1.3,1.4,2c0.6,0.9,1.1,1.7,1.7,2.5c0.5,0.8,1,1.6,1.3,2.5c0.3,0.8,0.5,1.7,0.5,2.5
			c0,0.9-0.1,1.8-0.5,2.7l0.1,1.1c0.4,0.6,0.4,1.5,0.2,2.7c-0.1,0.5-0.1,1-0.1,1.6c0,0.5,0.1,1.1,0.2,1.8c1.3,1,2.4,1.5,3.4,1.5
			c1.1,0,2.2-0.3,3.2-0.8c1-0.5,1.9-1.1,2.7-1.7c0.6-0.4,1.1-0.8,1.7-1.1c0.6-0.3,1.1-0.5,1.7-0.6c1.3-1.2,2.4-2.3,3.5-3.2
			c1-0.9,2.1-1.9,3.3-2.8c2.1-1.7,4.2-3.6,6.2-5.6c2-2,3.6-4.5,4.8-7.5c0.7-0.4,1.5-0.6,2.2-0.6c0.8,0,1.6,0.2,2.5,0.5
			c0.9,0.4,1.7,0.7,2.5,1.1c0.2,0.1,0.4,0.3,0.6,0.3c0.2,0.1,0.3,0.1,0.5,0.2c0,0.7,0.3,1.3,0.9,1.8c0.3,0.2,0.5,0.4,0.5,0.4
			c0.1,0.1,0.2,0.1,0.3,0.2c1.1,0.6,1.7,1.1,2,1.7c0.5,1.6,1.4,2.9,2.7,3.7c-0.1,0.7-0.1,1.4,0.1,2c0.2,0.6,0.4,1.2,0.7,1.9
			c0.1,0.2,0.1,0.4,0.2,0.6c0.1,0.2,0.2,0.5,0.3,0.8l-2-0.2l0.3,2c0.1,1,0.1,2.1-0.3,3.3c-0.3,1.2-0.7,2.2-1.1,2.9
			c0.1,1.9,0.1,3.3,0.2,4.3c0,1,0,2-0.2,2.9c-0.1,0.9-0.3,1.7-0.6,2.5c-0.3,0.8-0.6,1.6-1,2.6c0.3,4.6-0.2,8.7-1.6,12.5
			c-1.3,3.7-2.7,7.3-4.1,10.5c-0.1,0.4-0.3,0.7-0.5,1.1c-0.2,0.4-0.3,0.7-0.5,1.1c-0.6,0.2-1.2,0.4-1.7,0.7
			C189.8,230.7,189.3,231,188.7,231.3z"/>
		<path class="st1" d="M267.1,172.3c0.1,1.6,0.4,2.9,0.7,4.1c0.4,1.1,0.7,2.2,1.2,3.3c0.4,1,0.7,2,1,2.9c0.3,1,0.6,2.1,0.7,3.5
			c-0.6,1.9-1,3.6-1.2,5.1c-0.3,1.6-0.5,3.2-0.8,4.9c-1.1,2.5-2.2,4.7-3.3,6.6c-1.1,1.9-1.9,3.6-2.6,5c-0.4,0.4-0.7,0.8-0.9,1.2
			c-0.3,0.5-0.5,0.9-0.8,1.4c-0.1,0.2-0.3,0.5-0.5,1c-0.2,0.4-0.4,0.7-0.5,0.9l-2.1-0.8l-0.4,2.7l-1.5,0.4l-1.1,1.3
			c-1.4,2.4-2.8,4.3-4.3,5.9c-1.5,1.6-3.2,3-5.1,4.3c-1.9,1.3-4,2.4-6.4,3.5c-2.4,1.1-5.1,2.2-8.1,3.5c-1.2-0.1-2.3-0.2-3.2-0.3
			c-0.9,0-1.7-0.1-2.5-0.2c-1.4,0-3-0.1-5-0.3c-0.2-0.6-0.5-1-1-1.2c-0.4-0.2-0.8-0.3-1.2-0.3c-1.2-0.6-2.1-1.4-2.7-2.5
			c-0.6-1.1-1.2-2.3-1.8-3.6c-0.4-0.8-0.7-1.5-1.1-2.2c-0.4-0.7-0.7-1.4-1.2-2.1l1.8-0.5l-2.4-2.6c-0.1-0.2-0.3-0.4-0.5-0.6
			c-0.2-0.2-0.4-0.4-0.5-0.6l-0.1-1.7c-0.2-4.9-0.3-9.4-0.3-13.5c0-4.1,0.6-7.8,1.7-11v-1.2c0.2-1.6,0.4-2.9,0.6-3.9
			c0.2-1,0.4-2,0.5-2.9c0.2-1.6,0.5-3,1-4.4c1-0.2,1.7-0.6,2.2-1.2c0.5-0.6,0.9-1.2,1.3-1.7c1-0.1,1.7,0.1,2,0.4
			c0.4,0.4,0.7,0.9,1.1,1.7c0.4,0.6,0.8,1.4,1.3,2.1c0.5,0.8,1.3,1.4,2.4,1.8c0.1,0.6,0.3,1.2,0.6,1.8c0.2,0.6,0.5,1.3,0.8,2
			c0.6,1.2,1.1,2.5,1.6,3.8c0.5,1.3,0.7,2.6,0.8,3.8c-0.7,1.4-1.3,2.9-1.7,4.7c-0.4,1.8-0.6,3.6-0.7,5.4c-0.1,1.8-0.1,3.6,0.1,5.2
			c0.2,1.7,0.5,3.1,0.9,4.2l0.6,1.4l1.8-0.2c2.1-0.6,4.1-1.2,5.8-1.9c1.7-0.7,3.4-1.5,4.9-2.4c1.5-0.9,2.9-2,4.3-3.3
			c1.4-1.2,2.8-2.7,4.3-4.3c1.5-1.6,2.8-3.5,3.9-5.6c1.1-2.1,2-4.3,2.8-6.6c0.7-2.3,1.3-4.6,1.7-6.8c0.4-2.2,0.7-4.4,0.8-6.4
			c1.2-0.4,1.8-1.3,1.8-2.6l-0.2-1.2c-0.3-0.4-0.3-0.9,0-1.5c0.4-1.4,1.4-2.4,3-3.1c1.1,0.7,2.2,1.5,3.1,2.4
			C265.5,170.6,266.3,171.4,267.1,172.3z"/>
		<path class="st1" d="M296.3,232c-2,0.6-4.2,1.3-6.5,1.9c-2.4,0.6-4.7,1-7.1,1c-3.6,0-6.4-0.9-8.5-2.7c-0.4-0.8-0.7-1.3-1-1.6
			c-0.2-0.3-0.4-0.6-0.6-0.9c-0.2-0.3-0.3-0.8-0.4-1.3c-0.9-1-1.5-2.2-2-3.5c-0.5-1.3-0.8-2.7-1-4.1c-0.2-1.4-0.2-2.8-0.1-4.2
			c0.1-1.4,0.3-2.8,0.7-4.1c0.1-0.3,0.2-0.6,0.3-0.9c0-0.3,0.1-0.6,0.2-1c0.3-1.1,0.6-2.2,0.9-3.3c0.3-1.1,0.8-2,1.3-2.8
			c-0.3-0.6-0.3-1.4,0-2.1c0.3-0.8,0.6-1.5,1-2.1c1-2.7,1.8-5,2.5-6.9c0.7-1.9,1.4-3.8,2.1-5.6c1.2-3.2,2.4-6.4,3.4-9.5
			c1.1-3.1,2-6.5,2.9-10.2c0.6-0.4,1-0.6,1.3-0.7c0.4-0.1,0.8-0.2,1.1-0.3c1.3,0.6,2.8,1.3,4.5,1.9c1.7,0.6,3.1,0.9,4.3,0.9
			c0.6,0.4,0.9,0.6,1.1,0.8c0.1,0.2,0.3,0.3,0.4,0.5c0.8,0.9,1.5,1.9,2,2.8c0.6,1,0.7,2.2,0.5,3.8c-0.4,0.6-0.7,1-1,1
			c-0.4,1.4-0.7,2.6-1.1,3.6c-0.4,1-0.8,2-1.2,3c-0.5,1.1-1,2.1-1.4,3.2c-0.4,1.1-0.8,2.4-1.1,4c-0.3,0.4-0.5,0.7-0.6,1
			c-0.1,0.3-0.2,0.6-0.4,1c-0.1,0.4-0.3,0.7-0.5,1.1c-0.2,0.4-0.4,0.7-0.8,1c-0.2,1.9-0.6,3.4-1,4.5c-0.5,1.1-0.9,2.3-1.4,3.4
			c-0.9,2.1-1.6,4.1-2.3,6.2c-0.7,2.1-1.1,4.4-1.2,7.1c0.4-0.1,0.7-0.2,1-0.2s0.6,0,0.9,0c0.6,0,1.4,0.1,2.2,0.3
			c2.1-1.1,4.5-1.8,7-2c2.5-0.2,5-0.4,7.5-0.4c1,0,2,0,3,0c1,0,1.9-0.1,2.8-0.2c0.6,0.4,1.1,0.6,1.2,0.6c0.2,0,0.4,0.1,0.8,0.1
			c0.5,0,0.9,0,1.3,0.1c0.9,0.8,1.7,1.4,2.5,1.7c0.8,0.4,1.6,0.7,2.5,1c0.8,0.3,1.6,0.6,2.3,0.9c0.8,0.3,1.5,0.8,2.2,1.3l0.8,4.6
			c0.5,0.6,0.7,1.1,0.6,1.3c0,0.6-0.1,1-0.4,1.3l0.2,1.2c-1.1,0.2-1.8,0.5-2.2,0.8c-0.4,0.3-0.8,0.6-1.1,1c-0.6,0.1-1,0.1-1.2,0.1
			s-0.5,0-0.7,0c-1,0-2.2,0.2-3.6,0.5c-1.9-0.6-3.9-1-6-1c-0.8,0-1.6,0-2.5,0.1c-0.9,0.1-1.7,0.1-2.6,0.2c-0.9,0.1-1.7,0.3-2.6,0.3
			c-0.9,0.1-1.8,0.1-2.7,0.1L296.3,232z"/>
		<path class="st1" d="M383.2,224.2c-0.4,1.2-1.1,2.4-1.9,3.7c-0.8,1.2-1.8,2.4-2.9,3.3c-1.1,1-2.3,1.8-3.7,2.4
			c-1.4,0.6-2.8,1-4.3,1.1c-0.9-0.2-1.6-0.4-1.9-0.7c-0.3-0.3-0.7-0.5-1-0.7c-0.2-0.1-0.4-0.3-0.6-0.4c-0.2-0.1-0.3-0.2-0.5-0.3
			l-1.3-0.5l0.4-1.4c0.1-0.6,0.1-1-0.1-1.3s-0.6-0.8-1.3-1.3c-0.2-0.2-0.4-0.4-0.6-0.6c-0.2-0.2-0.4-0.4-0.5-0.6l-1.8-2l2.9-0.7
			c1.8-0.5,3-1.1,3.6-1.9c0.6-0.8,0.8-2.1,0.7-4c-1.4-0.3-2.6-0.3-3.6-0.1c-1,0.2-1.9,0.5-2.9,0.7c-1.3,0.4-2.6,0.7-3.9,0.9
			c-1.3,0.3-2.8,0.4-4.3,0.4c-0.6,0-1.1,0-1.6-0.1c-0.5,0-1-0.1-1.6-0.2l-1.1-0.2c-0.1-0.8-0.3-1.2-0.4-1.3
			c-0.1-0.1-0.3-0.2-0.4-0.4c-0.4-0.4-0.7-0.8-1.1-1.4c-0.4-0.6-0.5-1.4-0.3-2.3c-0.4-0.6-0.6-1.3-0.6-1.9c-0.4,0.9-0.8,1.8-1,2.7
			l-0.4,1.1l-1.1,0.2c-0.1,0.1-0.3,0.2-0.3,0.5c-0.1,0.3-0.1,0.4-0.1,0.6l-0.5,1.8c-0.1,0.1-0.3,0.3-0.4,0.4
			c-0.1,0.1-0.3,0.2-0.4,0.4c-0.1,0.6-0.3,1.3-0.5,1.9c-0.2,0.6-0.4,1.3-0.6,1.8c-0.4,0.9-0.7,1.8-0.9,2.7c-0.3,0.9-0.3,1.8-0.3,2.6
			l-0.4,1.2c-0.4,0.4-0.7,0.8-1.2,1c-0.4,0.3-0.9,0.5-1.3,0.7c-0.1,0.1-0.3,0.3-0.6,0.4c-0.3,0.1-0.4,0.2-0.6,0.3l-0.3,1.2l-1.3,0.2
			c-0.8,0.1-1.3,0.2-1.7,0.3c-0.3,0.1-0.7,0.1-1.1,0.1l-1.1-0.1c-0.8-0.6-1.4-1.2-1.8-1.6c-0.4-0.4-0.9-0.8-1.5-1.1
			c-0.6-0.9-1-1.5-1.1-1.9c-0.1-0.4-0.1-0.8-0.2-1.2c-0.1-0.4-0.2-0.8-0.3-1.1c0-0.3-0.1-0.5-0.3-0.6l-1.4-1.3l1.2-1l0.1-1.8
			c1.4-3.6,2.9-7.1,4.6-10.5c1.6-3.4,3.3-6.8,5-10.3c0.6-1.1,1.1-2.3,1.7-3.4c0.5-1.1,1.1-2.3,1.7-3.4c-0.1-0.2-0.1-0.5-0.1-0.8
			c0-0.3,0.1-0.6,0.2-1c0.8-1.2,1.4-2.3,1.9-3.3c0.5-1,1-1.9,1.5-2.9c0.6-1.2,1.2-2.4,1.8-3.5c0.6-1.1,1.4-2.3,2.3-3.5l1.7-0.8
			c0.2-0.1,0.5-0.2,0.7-0.3c0.3-0.1,0.6-0.2,1-0.2l1.6,0.2c2-0.9,3.7-2.2,5.2-3.9c1.5-1.7,3-3.7,4.6-6l1.1-1.5l1.4,0.9
			c0.4,0.2,0.9,0.4,1.5,0.6c0.6,0.2,1.3,0.4,2,0.6c1.3,0.3,2.5,0.6,3.6,1c1.1,0.4,2.1,0.9,2.8,1.6c0.4,1.1,0.7,2,0.7,2.6
			c0.1,0.6,0.2,1.1,0.3,1.7c0.2,1.2,0.4,2.4,0.6,3.6c0.2,1.2,0.3,2.6,0.4,4.1c0.4,1.2,0.7,2.4,0.9,3.6c0.2,1.2,0.5,2.4,0.7,3.6
			c0.4,1.7,0.7,3.4,1.1,5c0.4,1.6,0.8,3.1,1.4,4.6c0.6,0,0.9,0,1.1,0.1c0.4-0.1,0.7-0.3,1.1-0.3c0.4-0.1,0.8-0.1,1.3-0.2l1.2-0.1
			l0.4,1.1c0.1,0.4,0.4,0.7,1.1,1.1c0.9,0.1,1.6,0.3,2,0.6c0.4,0.3,0.8,0.7,1.2,1c0.3,0.3,0.6,0.5,0.9,0.6l1.6,0.6l-0.9,1.6
			c-0.7,1.3-1.7,2.5-3.1,3.7c-1.3,1.2-2.8,2.2-4.4,2.9c0.1,0.4,0.1,0.8,0.2,1.2c0,0.4,0.1,0.8,0.3,1.2c0.2,1.2,0.4,2.5,0.5,3.7
			c0.1,1.3,0.1,2.6,0,4L383.2,224.2z M352.2,205.7c2.1-0.1,4.1-0.3,5.8-0.5c1.7-0.2,3.7-0.5,5.8-0.9c-0.5-2.1-1-4.4-1.6-6.7
			c-0.6-2.3-1.2-4.6-1.8-6.9l-0.6,1.1c-1.4,1.5-2.8,3.2-4.1,5c-1.3,1.9-2.4,3.6-3.4,5.2c-0.4,0.6-0.9,1.3-1.3,1.9
			c-0.4,0.6-0.8,1.3-1.2,1.9c0.4-0.1,0.8-0.1,1.2-0.1C351.5,205.8,351.9,205.7,352.2,205.7z"/>
		<path class="st1" d="M445.7,181.7c-1.8,0-3.7,0.1-5.8,0.4c-2.1,0.3-4.1,0.5-6.1,0.8c-1.4,0.2-2.8,0.4-4.1,0.5
			c-1.3,0.1-2.5,0.3-3.6,0.3c-0.5,1.6-1,3-1.5,4.2c-0.5,1.2-1,2.4-1.6,3.5c-0.6,1.2-1.1,2.4-1.6,3.7c-0.5,1.3-0.9,2.6-1.3,4
			c-0.7,1.1-1.3,2.2-1.8,3.2c-0.5,1-0.8,2.1-1.1,3.3c-0.9,1.1-1.5,2.2-1.9,3.4c-0.4,1.2-0.7,2.2-1,3.1l-0.4,1.3
			c-0.4,0.4-0.7,0.8-0.8,1c-0.1,0.3-0.3,0.5-0.5,0.7c-0.1,0.8-0.3,1.6-0.7,2.4c-0.1,0.4-0.3,0.7-0.3,1c-0.1,0.3-0.1,0.6-0.1,0.7
			c0,0.7-0.2,1.2-0.5,1.4c0.1,0.4,0.1,0.7,0,1.1c-0.1,0.4-0.1,0.8-0.2,1.1c-0.2,0.9-0.3,1.5-0.2,2c0.2,0.3,0.4,0.5,0.6,0.8
			c0.2,0.2,0.3,0.5,0.4,0.9c0.4,0.3,0.7,0.5,1,0.5c0.3,0.2,0.7,0.5,1.3,0.8l1,1.1c0.4,2.1,0,3.7-1,4.9c-1.1,1.4-2.9,2-5.5,2h-1.3
			c-0.4-0.4-0.6-0.6-0.6-0.9c-0.6-0.2-1-0.4-1.4-0.5c-0.4-0.1-0.7-0.4-1-0.9c-0.9-0.4-1.7-0.8-2.2-1.1l-1-0.5c0-0.8,0-1.2,0-1.3
			c-0.5-0.6-0.9-1.4-1.1-2.1c-0.3-0.8-0.4-1.6-0.6-2.4c-0.1-0.6-0.3-1.2-0.5-1.8c-0.2-0.6-0.4-1.1-0.7-1.5
			c-0.1-4.1,0.3-7.6,1.2-10.5c0.9-2.9,1.9-5.6,2.9-8.2c0.6-1.4,1.1-2.9,1.7-4.3c0.6-1.5,1.1-3,1.5-4.6l1-1.1
			c0.5-1.1,0.9-2.1,1.2-2.8c0.3-0.8,0.7-1.5,1-2.3c0.2-0.5,0.4-1,0.6-1.4c0.2-0.5,0.3-0.9,0.5-1.2c-0.4,0-0.8,0-1.2,0.1
			c-0.4,0-0.7,0.1-1.1,0.2c-0.4,0.1-0.8,0.1-1.2,0.2c-0.4,0-0.7,0.1-1.1,0.1c-0.5,0-0.9,0-1.1-0.1c-0.8,0.4-1.6,0.5-2.6,0.5h-1.1
			c-0.2,0-0.4,0-0.6-0.1c-0.2,0-0.3-0.1-0.5-0.1c-0.7,0-1.3,0.1-1.7,0.3c-0.9,0-1.7,0-2.5,0h-1.1c-0.1,0-0.3,0-0.5,0.1
			c-0.2,0-0.4,0.1-0.5,0.1c-0.5,0-1-0.1-1.6-0.2c-0.6-0.1-1.2-0.3-1.8-0.7c-0.9-1.1-1.4-1.7-1.7-1.8l-1-1.3
			c-0.1-0.4-0.2-0.8-0.3-1.2c-0.1-0.4-0.3-0.8-0.4-1.3c-0.3-0.7-0.6-1.5-0.8-2.3c-0.3-0.8-0.4-1.8-0.4-2.9c0.1-0.6,0.2-1,0.4-1.3
			c0.2-0.3,0.4-0.5,0.5-0.7l0.3-1.6l1.4,0.1h3c2.3,0,4.6-0.1,7-0.3c2.4-0.2,4.8-0.4,7.3-0.6c1.4-0.1,2.9-0.3,4.3-0.4
			c1.5-0.1,3-0.3,4.6-0.4c0.3-0.6,0.6-1.2,0.9-1.8l1.1-0.5c1.3-0.1,2.2,0.1,2.7,0.5c0.5,0.4,1,0.8,1.3,1.1c1.6-0.1,3.2-0.3,4.8-0.5
			c1.6-0.2,3.2-0.4,4.9-0.7c2.4-0.4,4.9-0.7,7.3-1c2.5-0.3,4.8-0.4,7.1-0.4c1,0,2,0,2.9,0.1c0.9,0.1,1.8,0.2,2.6,0.3l1.1,0.7
			c0.2,0.4,0.5,0.8,0.9,1.2c0.4,0.4,0.8,0.7,1.2,1.1c0.9,0.8,1.7,1.7,2.6,2.8c0.9,1.1,1.2,2.6,1,4.7c-0.6,0.9-1,1.4-1.3,1.5l-1,1.3
			l-1.1-0.1c-0.4,0-0.8,0.1-1.2,0.2c-0.4,0.1-0.7,0.2-1.1,0.4c-0.3,0.1-0.6,0.3-0.9,0.4c-0.3,0.1-0.6,0.2-1,0.3
			c-0.6,0-1.2,0-1.6-0.1C446.5,181.7,446.1,181.7,445.7,181.7z"/>
		<path class="st1" d="M496.5,201.1c-0.1,0.9,0,1.7,0.2,2.5c0.2,0.8,0.5,1.6,0.8,2.3c0.3,0.8,0.6,1.5,0.9,2.3
			c0.3,0.8,0.5,1.6,0.6,2.4c0.1,1,0.1,2.1,0,3.3c-0.1,1.2-0.4,2.3-0.8,3.4c-0.4,1.1-0.8,2.1-1.4,3c-0.6,0.9-1.3,1.6-2,2
			c-1,1.3-2.2,2.3-3.6,3c-1.4,0.7-2.7,1.6-4,2.6c-0.8,0.5-1.7,0.9-2.6,1.1c-1,0.2-1.9,0.4-2.9,0.6c-0.8,0.4-1.7,0.9-2.8,1.3
			c-1.1,0.5-2.2,0.9-3.3,1.3c-1.1,0.4-2.3,0.7-3.4,0.9c-1.1,0.2-2.1,0.2-3,0.2c-2.1,0.8-4.2,1.3-6.3,1.6c-2,0.2-4.4,0.1-7.1-0.5
			c-2.6,0.4-4.9,0.2-7.1-0.3c-2.2-0.6-4.1-1.5-5.8-2.7c-1.7-1.2-3.1-2.7-4.4-4.5c-1.3-1.7-2.3-3.6-3.1-5.5
			c-0.6-4.1-0.4-7.8,0.4-11.1s2.1-6.4,3.7-9.2c1.6-2.8,3.4-5.4,5.5-7.8c2.1-2.4,4.1-4.7,6-7c0.4,0.1,0.8,0.1,1-0.1
			c0.2-0.2,0.5-0.4,0.7-0.7c0.2-0.3,0.4-0.6,0.7-0.9c0.2-0.3,0.6-0.5,0.9-0.5c0.5-1.1,1.2-1.9,2.2-2.4s1.7-1.3,2.3-2.3
			c0.6-0.1,1.2-0.4,1.6-0.6c0.4-0.3,0.8-0.6,1.2-1c0.4-0.4,0.8-0.7,1.2-1c0.4-0.3,0.9-0.6,1.5-0.7v-1.2c1.3-0.6,2.2-1.2,2.8-2
			c0.6-0.7,1.3-1.7,2.2-2.7c0.6-0.1,1.2-0.1,1.6-0.1c0.4,0,1-0.1,1.8-0.2c0.6-1,1.1-1.7,1.6-2.2c0.5-0.5,1.2-1,2.1-1.6
			c0.9,0.4,1.8,0.7,2.8,0.9c1,0.1,1.9,0.6,2.7,1.4c0.1,0.7,0.3,1.3,0.6,1.7c0.4,0.4,0.7,0.7,1.2,1.1c0.4,0.3,0.8,0.7,1.2,1
			c0.4,0.4,0.7,0.9,0.8,1.5c0.3,0.1,0.5,0,0.6-0.1c0.1-0.1,0.3-0.2,0.6-0.1c0.2,1,0.5,1.7,0.8,2c0.3,0.3,0.6,0.9,0.9,1.9
			c-0.4,0.7-0.6,1.4-0.8,2.2c-0.2,0.8-0.6,1.3-1.3,1.7c-0.1,0.5,0.1,0.8,0.4,0.8c0.4,0,0.6,0.2,0.6,0.6c0.1,0.6,0,1.1-0.3,1.4
			c1.7,2.8,3.2,5.7,4.6,8.8C493.2,195.3,494.7,198.3,496.5,201.1z M483.1,211.2c0.3-0.8,0.7-1.4,1.1-1.9c0.5-0.5,0.7-1.2,0.8-2.2
			c-0.4-0.6-0.6-1-0.6-1.3c-0.1-0.3-0.1-0.8-0.1-1.6c-1.6-2.2-2.9-4.6-4.1-7.1c-1.1-2.5-2.4-4.9-3.9-7.1c-0.1,0.3-0.4,0.6-0.8,0.9
			c-0.4,0.3-0.7,0.2-1.2-0.2c-0.1,0.6-0.4,1-0.7,1.2c-0.4,0.3-0.8,0.4-1.2,0.3c-0.4,0-0.9-0.1-1.3-0.3c-0.5-0.2-0.9-0.4-1.2-0.7
			c-2.1,1.6-4.1,3.2-6.2,4.8c-2.1,1.6-3.9,3.4-5.6,5.5c-0.3,0.1-0.5,0.2-0.5,0.2c-0.1,0-0.3,0-0.6,0.2c-0.6,1.4-1.3,2.6-2.1,3.7
			c-0.8,1.1-1.6,2.2-2.4,3.4c-0.8,1.1-1.5,2.4-2,3.6c-0.6,1.3-0.9,2.8-1,4.5c1.2,1,2.6,1.6,4.3,1.8c1.6,0.2,3.3,0.3,5.1,0.1
			c1.7-0.1,3.5-0.4,5.1-0.7c1.7-0.3,3.2-0.5,4.7-0.5c3-0.7,5.6-1.7,7.7-2.8S480.7,212.5,483.1,211.2z"/>
		<path class="st1" d="M520.2,222.1c-0.8,2.9-1.5,5-2.1,6.5c-0.6,1.5-1.5,3-2.7,4.5c-0.9-0.1-1.6,0-1.9,0.3c-0.4,0.4-0.8,0.7-1.2,1
			c-0.6,0.1-1.1,0.1-1.4,0c-0.3-0.1-0.5-0.3-0.8-0.5c-0.2-0.2-0.5-0.4-0.8-0.5c-0.3-0.2-0.8-0.3-1.4-0.3c-0.1-0.6-0.3-1.1-0.5-1.6
			c-0.2-0.5-0.7-0.7-1.4-0.5c0.1-0.6,0.2-1.1,0.1-1.4c-0.1-0.4-0.2-0.7-0.3-1.1c-0.1-0.3-0.2-0.6-0.3-1c-0.1-0.3,0-0.7,0.1-1.2
			c-0.4,0-0.6-0.2-0.9-0.7c-0.2-0.5-0.5-1-0.8-1.5c0.2-1.3,0.4-2.5,0.6-3.6c0.2-1.1,0.5-2.2,0.8-3.2c0.3-1,0.6-2,0.8-3
			c0.2-1,0.1-2-0.3-3.1c0.3,0.2,0.5,0.2,0.6-0.2c0.1-0.3,0.2-0.8,0.3-1.3c0.1-0.5,0.1-1.1,0.1-1.6s0-1-0.1-1.3
			c0.7-1.9,1.3-3.8,1.8-5.7c0.5-2,0.9-3.9,1.3-5.8c0.4-1.9,0.8-3.8,1.2-5.7c0.4-1.9,1-3.6,1.7-5.1c0.8-0.1,1.7-0.1,2.6,0.3
			c1,0.3,1.6,0.7,1.8,1.2c1.9-1.4,3.5-3.2,4.9-5.2c1.4-2,2.9-4,4.4-5.9s3.2-3.6,5-5.1s4.1-2.4,6.9-2.7c1.4,1.1,3,2.2,4.8,3.3
			c1.7,1.1,3.2,2.6,4.3,4.3c0.6,0.3,1.1,0.6,1.4,0.9c0.4,0.3,0.9,0.7,1.4,1v1.3c0.9,0.8,1.6,1.7,2.1,2.7c0.5,1,1,2.1,1.4,3.3
			c0.4,1.2,0.9,2.4,1.3,3.5c0.4,1.2,0.9,2.3,1.5,3.4c-0.1,0.4-0.2,0.7-0.2,0.9c0,0.3,0.1,0.5,0.2,0.8c0.1,0.3,0.2,0.6,0.3,0.9
			c0.1,0.3,0.1,0.7,0,1.2c-0.2,3.1-1.2,5.7-3.1,7.6c-1.8,1.9-4,3.5-6.6,4.8c-2.6,1.3-5.3,2.3-8.2,3.2c-2.9,0.9-5.6,1.8-7.9,2.8
			c0,0.3,0.1,0.4,0.4,0.4c0.3,0,0.3,0.2,0.3,0.5c1.7,1.1,3.1,1.9,4.1,2.6c1,0.6,1.9,1.2,2.8,1.6c0.9,0.4,1.9,0.8,2.9,1.1
			c1,0.3,2.5,0.7,4.3,1.1c1.9,0.4,3.3,0.8,4.3,1c1,0.3,2,0.5,2.8,0.6c0.9,0.2,1.7,0.3,2.6,0.4c0.9,0.1,2.2,0.2,3.8,0.4
			c0.6,0.6,1.2,1.4,1.7,2.3c0.5,0.9,0.8,1.8,0.9,2.7c0.1,0.9,0.2,1.8,0.1,2.6c-0.1,0.8-0.3,1.5-0.8,2c0.1,0.2,0.2,0.3,0.5,0.3
			c0.2,0,0.5,0,0.8,0.1c-0.4,0.3-0.8,0.6-1.1,1.1c-0.3,0.4-0.6,0.9-0.9,1.3c-0.3,0.4-0.6,0.8-1,1.1c-0.4,0.3-0.9,0.5-1.5,0.6
			c-2.2,0.9-5,0.9-8.4,0.2c-3.4-0.8-7.6-2.1-12.7-4.1c-2.6-1-4.7-1.9-6.3-2.6c-1.6-0.7-3-1.5-4.2-2.2c-1.2-0.8-2.2-1.6-3.2-2.4
			S521.6,223.3,520.2,222.1z M535.5,185.3c-0.8,1.1-1.7,2.2-2.6,3.1s-1.9,1.9-2.8,2.8c-0.9,1-1.7,2-2.4,3.2
			c-0.7,1.2-1.2,2.6-1.5,4.1c2.5-0.3,5.1-1,7.8-2.1c2.7-1.1,5.3-2.2,7.7-3.2c-0.3-2.2-1.1-4-2.3-5.4
			C538.2,186.7,536.9,185.8,535.5,185.3z"/>
	</g>
	<g>
		<path class="st2" d="M523.9,315.3c2.9,0.9,4.5,2.4,4.9,4.4c0.4,2,0,4-1,5.9c-1,1.9-2.5,3.5-4.4,4.7c-1.9,1.2-3.8,1.4-5.6,0.7
			c-0.1,0.9-0.5,1.6-1.2,2c-0.7,0.4-1.1,1-1.2,1.8c-10.6,3.3-21.4,7-32.3,11.1c-10.9,4.1-21.9,7.7-33,10.6c-8.8,1-16.2,0.8-22.4-0.6
			c-2.6-1.7-4.8-3.9-6.4-6.8c-1.6-2.8-2.8-5.9-3.5-9.2c-0.7-3.3-1.1-6.6-1.1-9.9c0-3.3,0.2-6.1,0.8-8.6c4.7-8.2,9.7-16.2,15-23.9
			c5.3-7.7,11.6-14.8,18.9-21.2c1.9-3.3,4.3-6.1,7.1-8.7c2.8-2.5,5.3-5.3,7.5-8.2c-3.5-0.7-7.1-0.8-10.8-0.3
			c-3.7,0.5-7.3,1.4-10.8,2.5c-3.5,1.1-6.7,2.4-9.7,3.8c-3,1.4-5.6,2.4-7.9,3.2c-1.9-0.6-4.1-0.8-6.5-0.6c-2.4,0.2-4.9,0.2-7.3-0.3
			c-1.5-0.9-2.6-2.2-3.4-3.9c-0.8-1.7-1.4-3.5-1.7-5.4c-0.4-1.9-0.7-3.7-1-5.4c-0.3-1.7-0.7-3.1-1.3-4.2c0.7-1.6,1.3-3.2,1.8-4.7
			c0.5-1.6,1.2-3,2-4.4c5-2.2,10.7-4.3,16.9-6.2c6.2-1.9,12.6-3.3,19.1-4.1c6.5-0.8,12.9-1,19.1-0.4c6.3,0.6,12,2.3,17.2,5.1
			c1,3,2.6,5.4,4.6,6.9c2.1,1.6,4.5,2.7,7.2,3.3c1.6,2.1,3,4.2,4.2,6.3c1.2,2.2,2.2,4.5,2.9,7c-1.4,6.3-3.8,11.7-7.2,16.4
			c-3.5,4.7-7,9-10.7,13c-2,2.2-4.1,4.2-6.5,5.9c-2.4,1.7-4.4,3.6-6,5.7c-0.4,0.5-0.6,1.1-0.6,1.9c0,0.7-0.2,1.3-0.6,1.7
			c-1.7,2.1-3.7,4-6,5.8c-2.3,1.8-4.3,3.7-6,5.8c-1.3,1.4-2.3,3-3,4.6c-0.7,1.6-1.8,3.1-3.2,4.4c2.1,0.4,4.1,0.4,6.1,0
			c1.9-0.4,3.9-0.9,5.9-1.6c2-0.6,4.1-1.3,6.2-2c2.1-0.7,4.4-1.1,6.7-1.3c3.1-1.6,6.5-3.1,10.3-4.5c3.8-1.4,7.7-2.3,11.6-2.7
			c3.2-1.8,6.2-3.3,9.2-4.4c3-1.1,5.9-1.6,8.7-1.7c1.5,0.3,2.8,1.2,3.7,2.5c0.9,1.3,2.2,2.2,3.9,2.5c-0.2,1.3-0.1,2.2,0.1,2.7
			C523.4,312.9,523.7,313.9,523.9,315.3z"/>
		<path class="st2" d="M560,342.7c-4.3,1.3-8.3,1.7-12.2,1.1c-3.9-0.6-7.4-1.9-10.6-3.9c-3.2-2-6.1-4.6-8.8-7.6
			c-2.6-3-4.9-6.4-6.8-10c-2.1-7.8-2.9-15.1-2.4-21.8c0.5-6.7,1.7-13,3.6-18.9c1.9-5.9,4.3-11.5,7-16.7c2.8-5.3,5.4-10.3,8-15.2
			c0.7,0.2,1.3,0.1,1.7-0.3c0.4-0.5,0.7-1,1-1.6c0.3-0.6,0.6-1.2,0.9-1.9c0.3-0.6,0.8-1.1,1.4-1.4c0.3-1.1,0.7-2,1.3-2.8
			c0.6-0.8,1.2-1.6,1.8-2.4c0.6-0.8,1.2-1.6,1.8-2.3c0.6-0.8,1-1.7,1.3-2.8c1-0.4,1.8-0.9,2.5-1.7c0.7-0.7,1.3-1.5,1.9-2.3
			c0.6-0.8,1.2-1.5,1.8-2.2c0.6-0.7,1.4-1.3,2.4-1.8l-0.3-2.2c2.1-1.6,3.5-3.1,4.3-4.7c0.8-1.5,1.8-3.5,2.9-5.8
			c1.1-0.4,2-0.6,2.6-0.6c0.7,0,1.6-0.3,2.8-0.7c0.7-2,1.4-3.6,2-4.8c0.6-1.1,1.6-2.4,3-3.9c1.6,0.7,3.3,1,5.1,1
			c1.8,0,3.5,0.7,4.9,1.9c0.3,1.4,0.9,2.5,1.6,3.2c0.7,0.7,1.5,1.3,2.4,1.8c0.9,0.5,1.7,1.1,2.5,1.7c0.8,0.6,1.4,1.5,1.8,2.7
			c0.4-0.1,0.7-0.2,0.9-0.5c0.1-0.2,0.4-0.3,0.9-0.3c0.4,1,0.7,1.7,1,2.2c0.3,0.5,0.6,1,0.9,1.5c0.3,0.5,0.6,0.9,1,1.4
			c0.4,0.5,0.7,1.1,1.1,2c-0.4,1.4-0.6,3-0.8,4.6c-0.2,1.6-0.8,2.8-2,3.5c0.1,0.9,0.5,1.4,1.1,1.4c0.6,0,1.1,0.4,1.3,1.2
			c0.2,1.1,0.1,2-0.1,2.8c3.7,5,7.2,10.4,10.3,16c3.2,5.6,6.6,10.9,10.3,15.9c0,1.7,0.3,3.3,1,4.8c0.6,1.5,1.3,3,2,4.4
			c0.7,1.4,1.5,2.8,2.2,4.2c0.7,1.4,1.3,2.8,1.8,4.4c0.5,2,0.9,4.1,1,6.4c0.2,2.3,0.1,4.6-0.2,6.8c-0.3,2.2-0.8,4.3-1.6,6.2
			c-0.7,1.9-1.7,3.5-2.9,4.5c-0.2-0.1-0.8,0.3-1.7,1.2c-0.9,0.9-1.9,2-3,3.3c-1.1,1.3-2.3,2.7-3.4,4.3c-1.1,1.5-2.1,2.9-3,4
			c-1.2,1.1-2.6,2-4.2,2.6c-1.6,0.6-3.1,1.3-4.8,2c-1.2,1.1-2.7,2.3-4.4,3.5c-1.7,1.2-3.5,2.3-5.3,3.3c-1.9,1-3.7,1.8-5.5,2.5
			c-1.8,0.7-3.5,1-5,1c-3.5,2.1-6.9,3.7-10.2,4.7C568.9,342.8,564.8,343.1,560,342.7z M554.3,278.8c-0.5,2.8-1.2,5.4-2.1,7.7
			c-0.9,2.3-1.8,4.7-2.6,7.1c-0.8,2.4-1.5,4.9-2,7.6c-0.5,2.6-0.5,5.6-0.1,9c2.1,1.6,4.4,2.5,7,2.6c2.6,0.1,5.2-0.3,7.7-1
			c2.6-0.7,5.1-1.6,7.6-2.5c2.5-0.9,4.8-1.6,6.9-2.1c-0.1-1,0.2-1.5,1-1.5c3.6-1,6.9-2.9,9.9-5.7c3-2.8,6-5.6,9.3-8.5
			c0.2-1.5,0.6-2.8,1.2-4c0.6-1.1,0.7-2.6,0.4-4.5c-0.6-1.2-1-2-1.2-2.6c-0.2-0.6-0.4-1.6-0.6-3.1c-3-3.9-5.7-8.2-8.2-12.9
			c-2.5-4.7-5.1-9-8-12.9c-0.1,0.6-0.4,1.2-0.9,1.9c-0.5,0.6-1.1,0.6-1.9-0.1c-0.2,2.3-1.1,3.5-2.5,3.5c-1.4,0-2.8-0.5-4.2-1.4
			c-2.6,3.7-5.3,7.3-8,10.9c-2.7,3.5-4.9,7.5-6.8,11.9c-0.4,0.4-0.7,0.5-0.8,0.4C555.1,278.2,554.8,278.4,554.3,278.8z"/>
		<path class="st2" d="M677.8,325.2c-4.3,1.3-8.3,1.7-12.2,1.1s-7.4-1.9-10.6-3.9c-3.2-2-6.1-4.6-8.8-7.6c-2.6-3-4.9-6.4-6.8-10
			c-2.1-7.8-2.9-15.1-2.4-21.8c0.5-6.7,1.7-13,3.6-18.9c1.9-5.9,4.3-11.5,7-16.7c2.8-5.3,5.4-10.3,8-15.2c0.7,0.2,1.3,0.1,1.7-0.3
			c0.4-0.5,0.7-1,1-1.6c0.3-0.6,0.6-1.2,0.9-1.9c0.3-0.6,0.8-1.1,1.4-1.4c0.3-1.1,0.7-2,1.3-2.8c0.6-0.8,1.2-1.6,1.8-2.4
			c0.6-0.8,1.2-1.6,1.8-2.3c0.6-0.8,1-1.7,1.3-2.8c1-0.4,1.8-0.9,2.5-1.7c0.7-0.7,1.3-1.5,1.9-2.3c0.6-0.8,1.2-1.5,1.8-2.2
			c0.6-0.7,1.4-1.3,2.4-1.8l-0.3-2.2c2.1-1.6,3.5-3.1,4.3-4.7c0.8-1.5,1.8-3.5,2.9-5.8c1.1-0.4,2-0.6,2.6-0.6c0.7,0,1.6-0.3,2.8-0.7
			c0.7-2,1.4-3.6,2-4.8c0.6-1.1,1.6-2.4,3-3.9c1.6,0.7,3.3,1,5.1,1c1.8,0,3.5,0.7,4.9,1.9c0.3,1.4,0.9,2.5,1.6,3.2
			c0.7,0.7,1.5,1.3,2.4,1.8c0.9,0.5,1.7,1.1,2.5,1.7c0.8,0.6,1.4,1.5,1.8,2.7c0.4-0.1,0.7-0.2,0.9-0.5c0.1-0.2,0.4-0.3,0.9-0.3
			c0.4,1,0.7,1.7,1,2.2c0.3,0.5,0.6,1,0.9,1.5c0.3,0.5,0.6,0.9,1,1.4c0.4,0.5,0.7,1.1,1.1,2c-0.4,1.4-0.6,2.9-0.8,4.6
			c-0.2,1.6-0.8,2.8-2,3.5c0.1,0.9,0.5,1.4,1.1,1.4c0.6,0,1.1,0.4,1.3,1.2c0.2,1.1,0.1,2-0.1,2.8c3.7,5,7.2,10.4,10.3,16
			c3.2,5.6,6.6,10.9,10.3,15.9c0,1.7,0.3,3.3,1,4.8c0.6,1.5,1.3,3,2,4.4c0.7,1.4,1.4,2.8,2.2,4.2c0.7,1.4,1.3,2.8,1.8,4.4
			c0.5,2,0.9,4.1,1,6.4c0.2,2.3,0.1,4.6-0.2,6.8c-0.3,2.2-0.8,4.3-1.6,6.2c-0.7,1.9-1.7,3.5-2.9,4.5c-0.2-0.1-0.8,0.3-1.7,1.2
			c-0.9,0.9-1.9,2-3,3.3c-1.1,1.3-2.3,2.7-3.4,4.3c-1.1,1.5-2.1,2.9-3,4c-1.2,1.1-2.6,2-4.2,2.6c-1.6,0.6-3.1,1.3-4.8,2
			c-1.2,1.1-2.7,2.3-4.4,3.5c-1.7,1.2-3.5,2.3-5.3,3.3c-1.9,1-3.7,1.8-5.5,2.5c-1.8,0.7-3.5,1-5,1c-3.5,2.1-6.9,3.7-10.2,4.7
			C686.8,325.3,682.7,325.6,677.8,325.2z M672.1,261.3c-0.5,2.8-1.2,5.4-2.1,7.7c-0.9,2.3-1.8,4.7-2.6,7.1c-0.8,2.4-1.5,4.9-2,7.6
			c-0.5,2.6-0.5,5.6-0.1,9c2.1,1.6,4.4,2.5,7,2.6c2.6,0.1,5.2-0.3,7.7-1c2.6-0.7,5.1-1.6,7.6-2.5c2.5-0.9,4.8-1.6,6.9-2.1
			c-0.1-1,0.2-1.5,1-1.5c3.6-1,6.9-2.9,9.9-5.7c3-2.8,6-5.6,9.3-8.5c0.2-1.5,0.6-2.8,1.2-3.9c0.6-1.1,0.7-2.6,0.4-4.5
			c-0.6-1.2-1-2-1.2-2.6c-0.2-0.6-0.4-1.6-0.6-3.1c-3-3.9-5.7-8.2-8.2-12.9c-2.5-4.7-5.1-9-8-12.9c-0.1,0.6-0.5,1.2-0.9,1.8
			c-0.5,0.6-1.1,0.6-1.9-0.1c-0.2,2.3-1.1,3.5-2.5,3.5c-1.4,0-2.8-0.5-4.2-1.4c-2.6,3.7-5.3,7.3-8,10.9c-2.7,3.5-4.9,7.5-6.8,11.9
			c-0.4,0.4-0.7,0.5-0.8,0.4C673,260.7,672.6,260.9,672.1,261.3z"/>
		<path class="st2" d="M795.7,307.7c-4.3,1.3-8.3,1.7-12.2,1.1c-3.9-0.6-7.4-1.9-10.6-3.9c-3.2-2-6.1-4.6-8.8-7.6
			c-2.6-3-4.9-6.4-6.8-10c-2.1-7.8-2.9-15.1-2.4-21.8c0.5-6.7,1.7-13,3.6-18.9c1.9-5.9,4.3-11.5,7-16.7c2.8-5.3,5.4-10.3,8-15.2
			c0.7,0.2,1.3,0.1,1.7-0.3c0.4-0.5,0.7-1,1-1.6c0.3-0.6,0.6-1.2,0.9-1.9c0.3-0.6,0.8-1.1,1.4-1.4c0.3-1.1,0.7-2,1.3-2.8
			c0.6-0.8,1.2-1.6,1.8-2.4c0.6-0.8,1.2-1.6,1.8-2.3c0.6-0.8,1-1.7,1.3-2.8c1-0.4,1.8-0.9,2.5-1.7c0.7-0.7,1.3-1.5,1.9-2.3
			c0.6-0.8,1.2-1.5,1.8-2.2c0.6-0.7,1.4-1.3,2.4-1.8l-0.3-2.2c2.1-1.6,3.5-3.1,4.3-4.7c0.8-1.5,1.8-3.5,2.9-5.8
			c1.1-0.4,2-0.6,2.6-0.6c0.7,0,1.6-0.3,2.8-0.7c0.7-2,1.4-3.6,2-4.8c0.6-1.1,1.6-2.4,3-3.9c1.6,0.7,3.3,1,5.1,1
			c1.8,0,3.5,0.7,4.9,1.9c0.3,1.4,0.9,2.5,1.6,3.2c0.7,0.7,1.5,1.3,2.4,1.8c0.9,0.5,1.7,1.1,2.5,1.7c0.8,0.6,1.4,1.5,1.8,2.7
			c0.4-0.1,0.7-0.2,0.9-0.5c0.1-0.2,0.4-0.3,0.9-0.3c0.4,1,0.7,1.7,1,2.2c0.3,0.5,0.6,1,0.9,1.5c0.3,0.5,0.6,0.9,1,1.4
			c0.4,0.5,0.7,1.1,1.1,2c-0.4,1.4-0.6,2.9-0.8,4.6c-0.2,1.6-0.8,2.8-2,3.5c0.1,0.9,0.5,1.4,1.1,1.4c0.6,0,1.1,0.4,1.3,1.2
			c0.2,1.1,0.1,2-0.1,2.8c3.7,5,7.2,10.4,10.3,16c3.2,5.6,6.6,10.9,10.3,15.9c0,1.7,0.3,3.3,1,4.8c0.6,1.5,1.3,3,2,4.4
			c0.7,1.4,1.5,2.8,2.2,4.2c0.7,1.4,1.3,2.8,1.8,4.4c0.5,2,0.9,4.1,1,6.4c0.2,2.3,0.1,4.6-0.2,6.8c-0.3,2.2-0.8,4.3-1.6,6.2
			c-0.7,1.9-1.7,3.5-2.9,4.5c-0.2-0.1-0.8,0.3-1.7,1.2c-0.9,0.9-1.9,2-3,3.3c-1.1,1.3-2.3,2.7-3.4,4.3c-1.1,1.5-2.1,2.9-3,4
			c-1.2,1.1-2.6,2-4.2,2.6c-1.6,0.6-3.1,1.3-4.8,2c-1.2,1.1-2.7,2.3-4.4,3.5c-1.7,1.2-3.5,2.3-5.3,3.3c-1.9,1-3.7,1.8-5.5,2.5
			c-1.8,0.7-3.5,1-5,1c-3.5,2.1-6.9,3.7-10.2,4.7C804.7,307.8,800.6,308.1,795.7,307.7z M790,243.8c-0.5,2.8-1.2,5.4-2.1,7.7
			c-0.9,2.3-1.8,4.7-2.6,7.1c-0.8,2.4-1.5,4.9-2,7.6s-0.5,5.6-0.1,9c2.1,1.6,4.4,2.5,7,2.6c2.6,0.1,5.2-0.3,7.7-1
			c2.6-0.7,5.1-1.6,7.6-2.5c2.5-0.9,4.8-1.6,6.9-2.1c-0.1-1,0.2-1.5,1-1.5c3.6-1,6.9-2.9,9.9-5.7c3-2.8,6-5.6,9.3-8.5
			c0.2-1.5,0.6-2.8,1.2-4c0.6-1.1,0.7-2.6,0.4-4.5c-0.6-1.2-1-2-1.2-2.6c-0.2-0.6-0.4-1.6-0.6-3.1c-3-3.9-5.7-8.2-8.2-12.9
			c-2.5-4.7-5.1-9-8-12.9c-0.1,0.6-0.5,1.2-0.9,1.9c-0.5,0.6-1.1,0.6-1.9-0.1c-0.2,2.3-1.1,3.5-2.5,3.5c-1.4,0-2.8-0.5-4.2-1.4
			c-2.6,3.7-5.3,7.3-8,10.9c-2.7,3.5-4.9,7.5-6.8,11.9c-0.4,0.4-0.7,0.5-0.8,0.4C790.8,243.2,790.5,243.4,790,243.8z"/>
	</g>
</g>
</svg>
